<?xml version="1.0" encoding="UTF-8" standalone="no"?>
<!DOCTYPE svg PUBLIC "-//W3C//DTD SVG 1.1//EN" "http://www.w3.org/Graphics/SVG/1.1/DTD/svg11.dtd">
<svg width="100%" height="100%" viewBox="0 0 40 40" version="1.1" xmlns="http://www.w3.org/2000/svg" xmlns:xlink="http://www.w3.org/1999/xlink" xml:space="preserve" xmlns:serif="http://www.serif.com/" style="fill-rule:evenodd;clip-rule:evenodd;stroke-linejoin:round;stroke-miterlimit:2;">
    <g transform="matrix(0.680314,0,0,0.680314,5.78406,6.29461)">
        <rect x="17.752" y="16.423" width="6.809" height="6.809"/>
    </g>
    <g transform="matrix(0.680314,0,0,0.680314,11.5667,6.29461)">
        <rect x="17.752" y="16.423" width="6.809" height="6.809" style="fill-opacity:0.7;"/>
    </g>
    <g transform="matrix(-1.24972e-16,0.680314,-0.680314,-1.24972e-16,33.7319,11.0653)">
        <rect x="17.752" y="16.423" width="6.809" height="6.809" style="fill-opacity:0.7;"/>
    </g>
    <g transform="matrix(0.680314,0,0,0.680314,17.3223,6.29461)">
        <rect x="17.752" y="16.423" width="6.809" height="6.809" style="fill-opacity:0.4;"/>
    </g>
    <g transform="matrix(-1.24972e-16,0.680314,-0.680314,-1.24972e-16,33.7319,16.8209)">
        <rect x="17.752" y="16.423" width="6.809" height="6.809" style="fill-opacity:0.4;"/>
    </g>
    <g transform="matrix(0.680314,0,0,0.680314,23.2168,6.29461)">
        <rect x="17.752" y="16.423" width="6.809" height="6.809" style="fill-opacity:0.1;"/>
    </g>
    <g transform="matrix(-1.24972e-16,0.680314,-0.680314,-1.24972e-16,33.7319,22.7154)">
        <rect x="17.752" y="16.423" width="6.809" height="6.809" style="fill-opacity:0.1;"/>
    </g>
    <g transform="matrix(0.680314,0,0,0.680314,-11.5173,6.29461)">
        <rect x="17.752" y="16.423" width="6.809" height="6.809" style="fill-opacity:0.1;"/>
    </g>
    <g transform="matrix(-1.24972e-16,0.680314,-0.680314,-1.24972e-16,33.7319,-12.0186)">
        <rect x="17.752" y="16.423" width="6.809" height="6.809" style="fill-opacity:0.1;"/>
    </g>
    <g transform="matrix(0.680314,0,0,0.680314,-5.74457,6.29461)">
        <rect x="17.752" y="16.423" width="6.809" height="6.809" style="fill-opacity:0.4;"/>
    </g>
    <g transform="matrix(-1.24972e-16,0.680314,-0.680314,-1.24972e-16,33.7319,-6.24594)">
        <rect x="17.752" y="16.423" width="6.809" height="6.809" style="fill-opacity:0.4;"/>
    </g>
    <g transform="matrix(0.680314,0,0,0.680314,0.134937,6.29461)">
        <rect x="17.752" y="16.423" width="6.809" height="6.809" style="fill-opacity:0.7;"/>
    </g>
    <g transform="matrix(-1.24972e-16,0.680314,-0.680314,-1.24972e-16,33.7319,-0.366434)">
        <rect x="17.752" y="16.423" width="6.809" height="6.809" style="fill-opacity:0.7;"/>
    </g>
</svg>
