<?xml version="1.0" encoding="UTF-8" standalone="no"?>
<!DOCTYPE svg PUBLIC "-//W3C//DTD SVG 1.1//EN" "http://www.w3.org/Graphics/SVG/1.1/DTD/svg11.dtd">
<svg width="100%" height="100%" viewBox="0 0 40 40" version="1.1" xmlns="http://www.w3.org/2000/svg" xmlns:xlink="http://www.w3.org/1999/xlink" xml:space="preserve" xmlns:serif="http://www.serif.com/" style="fill-rule:evenodd;clip-rule:evenodd;stroke-linejoin:round;stroke-miterlimit:2;">
    <g transform="matrix(77.6585,0,0,69.7923,0.61624,37.0158)">
        <path d="M0.471,-0.034L0.411,0.012C0.41,0.01 0.394,-0.012 0.364,-0.053C0.334,-0.094 0.296,-0.144 0.25,-0.203L0.249,-0.203C0.205,-0.149 0.168,-0.1 0.136,-0.057C0.105,-0.013 0.088,0.01 0.085,0.013L0.03,-0.031C0.035,-0.035 0.054,-0.058 0.089,-0.1C0.124,-0.141 0.164,-0.19 0.209,-0.246L0.209,-0.247C0.18,-0.284 0.153,-0.319 0.126,-0.353C0.1,-0.386 0.071,-0.422 0.041,-0.46L0.099,-0.505C0.122,-0.474 0.147,-0.441 0.173,-0.406C0.198,-0.372 0.225,-0.337 0.253,-0.301L0.254,-0.301C0.278,-0.332 0.302,-0.364 0.327,-0.396C0.352,-0.429 0.379,-0.465 0.408,-0.504L0.463,-0.462C0.431,-0.424 0.402,-0.389 0.376,-0.358C0.351,-0.327 0.323,-0.293 0.293,-0.257L0.293,-0.256C0.341,-0.196 0.382,-0.144 0.416,-0.102C0.45,-0.06 0.468,-0.037 0.471,-0.034Z" style="fill-rule:nonzero;"/>
    </g>
</svg>
