<?xml version="1.0" encoding="UTF-8" standalone="no"?>
<!DOCTYPE svg PUBLIC "-//W3C//DTD SVG 1.1//EN" "http://www.w3.org/Graphics/SVG/1.1/DTD/svg11.dtd">
<svg width="100%" height="100%" viewBox="0 0 3508 2481" version="1.1" xmlns="http://www.w3.org/2000/svg" xmlns:xlink="http://www.w3.org/1999/xlink" xml:space="preserve" xmlns:serif="http://www.serif.com/" style="fill-rule:evenodd;clip-rule:evenodd;stroke-linecap:round;stroke-linejoin:round;stroke-miterlimit:1.5;">
    <g id="Capa4">
        <path d="M112.568,137.134L112.568,706.538" style="fill:none;stroke:rgb(130,239,244);stroke-width:3px;"/>
        <g transform="matrix(1,0,0,0.810982,114.505,133.549)">
            <path d="M112.568,137.134L112.568,706.538" style="fill:none;stroke:rgb(130,239,244);stroke-width:3.3px;"/>
        </g>
        <g transform="matrix(1,0,0,1.37538,226.606,-44.481)">
            <path d="M112.568,137.134L113.523,714.508" style="fill:none;stroke:rgb(130,239,244);stroke-width:2.49px;"/>
        </g>
        <path d="M451.677,1403.19L340.641,1512.82" style="fill:none;stroke:rgb(130,239,244);stroke-width:3px;"/>
        <g transform="matrix(1,0,0,0.80823,340.686,128.828)">
            <path d="M112.568,137.134L112.568,706.538" style="fill:none;stroke:rgb(130,239,244);stroke-width:3.3px;"/>
        </g>
        <g transform="matrix(1,0,0,0.598601,456.319,51.501)">
            <path d="M112.568,137.134L112.568,706.538" style="fill:none;stroke:rgb(130,239,244);stroke-width:3.64px;"/>
        </g>
        <g transform="matrix(1,0,0,0.597599,569.271,168.201)">
            <path d="M112.568,137.134L112.568,706.538" style="fill:none;stroke:rgb(130,239,244);stroke-width:3.64px;"/>
        </g>
        <g transform="matrix(1,0,0,1.80644,684.359,2.4277)">
            <path d="M112.568,137.134L112.568,706.538" style="fill:none;stroke:rgb(130,239,244);stroke-width:2.05px;"/>
        </g>
        <g transform="matrix(1,0,0,0.991,799.408,2.96004)">
            <path d="M112.568,137.134L112.568,706.538" style="fill:none;stroke:rgb(130,239,244);stroke-width:3.01px;"/>
        </g>
        <g transform="matrix(1,0,0,0.61294,912.665,54.8051)">
            <path d="M112.568,137.134L112.568,706.538" style="fill:none;stroke:rgb(130,239,244);stroke-width:3.62px;"/>
        </g>
        <g transform="matrix(1,0,0,0.205712,1031.38,110.65)">
            <path d="M112.568,137.134L112.568,706.538" style="fill:none;stroke:rgb(130,239,244);stroke-width:4.16px;"/>
        </g>
        <g transform="matrix(1,0,0,0.364421,1031.38,333.388)">
            <path d="M112.568,78.974L112.568,706.538" style="fill:none;stroke:rgb(130,239,244);stroke-width:3.99px;"/>
        </g>
        <g transform="matrix(1,0,0,0.813849,1139.46,136.501)">
            <path d="M112.568,137.134L112.568,706.538" style="fill:none;stroke:rgb(130,239,244);stroke-width:3.29px;"/>
        </g>
        <g transform="matrix(1,0,0,0.522103,1254.61,176.509)">
            <path d="M112.568,137.134L112.568,706.538" style="fill:none;stroke:rgb(130,239,244);stroke-width:3.76px;"/>
        </g>
        <g transform="matrix(1,0,0,0.807135,1369.26,28.0151)">
            <path d="M112.568,137.134L112.568,706.538" style="fill:none;stroke:rgb(130,239,244);stroke-width:3.3px;"/>
        </g>
        <g transform="matrix(1,0,0,0.409046,1483.17,185.07)">
            <path d="M112.568,137.134L112.568,706.538" style="fill:none;stroke:rgb(130,239,244);stroke-width:3.93px;"/>
        </g>
        <g transform="matrix(1,0,0,0.409046,1600.56,185.07)">
            <path d="M112.568,137.134L112.568,706.538" style="fill:none;stroke:rgb(130,239,244);stroke-width:3.93px;"/>
        </g>
        <g transform="matrix(0.490196,0,0,0.200513,1771.94,113.633)">
            <path d="M112.568,137.134L112.568,706.538" style="fill:none;stroke:rgb(130,239,244);stroke-width:8.01px;"/>
        </g>
        <g transform="matrix(0.490196,0,0,0.813593,1889.58,29.5589)">
            <path d="M112.568,137.134L112.568,706.538" style="fill:none;stroke:rgb(130,239,244);stroke-width:4.47px;"/>
        </g>
        <g transform="matrix(0.490196,0,0,1.40266,2002.92,-51.2222)">
            <path d="M112.568,137.134L112.568,706.538" style="fill:none;stroke:rgb(130,239,244);stroke-width:2.86px;"/>
        </g>
        <g transform="matrix(0.490196,0,0,0.207857,2116.75,112.626)">
            <path d="M112.568,137.134L112.568,706.538" style="fill:none;stroke:rgb(130,239,244);stroke-width:7.97px;"/>
        </g>
        <g transform="matrix(0.490196,0,0,0.207857,2233.68,216.368)">
            <path d="M112.568,137.134L112.568,706.538" style="fill:none;stroke:rgb(130,239,244);stroke-width:7.97px;"/>
        </g>
        <path d="M2288.86,363.227L2171.6,479.372" style="fill:none;stroke:rgb(130,239,244);stroke-width:3px;"/>
        <g transform="matrix(0.490196,0,0,1.01954,2348.04,101.058)">
            <path d="M112.568,137.134L112.568,706.538" style="fill:none;stroke:rgb(130,239,244);stroke-width:3.75px;"/>
        </g>
        <g transform="matrix(0.490196,0,0,1.20042,2458.4,-26.741)">
            <path d="M112.568,137.134L112.568,706.538" style="fill:none;stroke:rgb(130,239,244);stroke-width:3.27px;"/>
        </g>
        <g transform="matrix(0.490196,0,0,0.829004,2576.25,126.643)">
            <path d="M112.568,137.134L112.568,706.538" style="fill:none;stroke:rgb(130,239,244);stroke-width:4.41px;"/>
        </g>
        <g transform="matrix(0.490196,0,0,1.21581,2692,-31.9844)">
            <path d="M112.568,137.134L112.568,706.538" style="fill:none;stroke:rgb(130,239,244);stroke-width:3.24px;"/>
        </g>
        <g transform="matrix(0.490196,0,0,0.40056,2805.42,79.8143)">
            <path d="M112.568,137.134L112.568,706.538" style="fill:none;stroke:rgb(130,239,244);stroke-width:6.7px;"/>
        </g>
        <g transform="matrix(0.490196,0,0,0.213313,2920.88,105.492)">
            <path d="M112.568,137.134L112.568,706.538" style="fill:none;stroke:rgb(130,239,244);stroke-width:7.94px;"/>
        </g>
        <g transform="matrix(0.490196,0,0,1.60422,3032.66,31.008)">
            <path d="M112.568,137.134L112.568,706.538" style="fill:none;stroke:rgb(130,239,244);stroke-width:2.53px;"/>
        </g>
        <g transform="matrix(0.490196,0,0,2.4322,3147.18,-206.042)">
            <path d="M112.568,137.134L112.568,704.707" style="fill:none;stroke:rgb(130,239,244);stroke-width:1.71px;"/>
        </g>
        <g transform="matrix(0.490196,0,0,1.26339,3259.55,60.6874)">
            <path d="M112.568,137.134L112.568,694.879" style="fill:none;stroke:rgb(130,239,244);stroke-width:3.13px;"/>
        </g>
        <g transform="matrix(0.490196,0,0,1.04717,3376.55,90.3396)">
            <path d="M112.568,137.134L112.568,706.538" style="fill:none;stroke:rgb(130,239,244);stroke-width:3.67px;"/>
        </g>
        <g transform="matrix(0.490196,0,0,0.8346,3376.55,928.205)">
            <path d="M112.568,153.655L112.568,706.538" style="fill:none;stroke:rgb(130,239,244);stroke-width:4.38px;"/>
        </g>
        <path d="M3431.73,1056.44L3316.17,939.485" style="fill:none;stroke:rgb(130,239,244);stroke-width:3px;"/>
        <g transform="matrix(0.490196,0,0,0.8346,3376.55,1633.91)">
            <path d="M112.568,137.134L112.568,668.102L-125.564,806.949" style="fill:none;stroke:rgb(130,239,244);stroke-width:4.38px;"/>
        </g>
        <g transform="matrix(0.490196,0,0,0.137118,3376.55,2391.8)">
            <path d="M112.568,137.134L112.568,706.538" style="fill:none;stroke:rgb(130,239,244);stroke-width:8.34px;"/>
        </g>
        <g transform="matrix(0.490196,0,0,0.840546,3259.55,1038.52)">
            <path d="M112.568,137.134L112.568,706.538" style="fill:none;stroke:rgb(130,239,244);stroke-width:4.36px;"/>
        </g>
        <g transform="matrix(0.490196,0,0,0.61322,3259.55,1758.79)">
            <path d="M112.568,137.134L112.568,706.538" style="fill:none;stroke:rgb(130,239,244);stroke-width:5.4px;"/>
        </g>
        <g transform="matrix(0.490196,0,0,0.29177,3259.55,2267.64)">
            <path d="M112.568,137.134L112.568,706.538" style="fill:none;stroke:rgb(130,239,244);stroke-width:7.44px;"/>
        </g>
        <g transform="matrix(0.490196,0,0,1.45419,3147.18,1446.65)">
            <path d="M112.568,137.134L112.568,706.538" style="fill:none;stroke:rgb(130,239,244);stroke-width:2.76px;"/>
        </g>
        <g transform="matrix(0.490196,0,0,0.210982,3032.66,1360.38)">
            <path d="M112.568,137.134L112.568,706.538" style="fill:none;stroke:rgb(130,239,244);stroke-width:7.95px;"/>
        </g>
        <g transform="matrix(0.490196,0,0,1.11208,3032.66,1697.63)">
            <path d="M112.568,137.134L112.568,706.538" style="fill:none;stroke:rgb(130,239,244);stroke-width:3.49px;"/>
        </g>
        <g transform="matrix(0.490196,0,0,0.788762,2920.88,383.448)">
            <path d="M-123.362,-24.466L112.568,121.341L112.568,706.538" style="fill:none;stroke:rgb(130,239,244);stroke-width:4.57px;"/>
        </g>
        <g transform="matrix(0.490196,0,0,0.596736,2920.88,984.15)">
            <path d="M112.568,137.134L112.568,706.538" style="fill:none;stroke:rgb(130,239,244);stroke-width:5.49px;"/>
        </g>
        <g transform="matrix(0.490196,0,0,0.607484,2920.88,1664.03)">
            <path d="M112.568,122.701L112.568,706.538" style="fill:none;stroke:rgb(130,239,244);stroke-width:5.44px;"/>
        </g>
        <g transform="matrix(0.490196,0,0,0.268944,2920.88,2285.13)">
            <path d="M112.568,137.134L112.568,706.538" style="fill:none;stroke:rgb(130,239,244);stroke-width:7.59px;"/>
        </g>
        <g transform="matrix(0.490196,0,0,0.109046,2808.17,2398.11)">
            <path d="M112.568,137.134L112.568,706.538" style="fill:none;stroke:rgb(130,239,244);stroke-width:8.45px;"/>
        </g>
        <g transform="matrix(0.490196,0,0,0.631662,2805.42,502.981)">
            <path d="M112.568,137.134L112.568,706.538" style="fill:none;stroke:rgb(130,239,244);stroke-width:5.31px;"/>
        </g>
        <g transform="matrix(0.490196,0,0,0.631662,2805.42,1070.67)">
            <path d="M112.568,137.134L112.568,706.538" style="fill:none;stroke:rgb(130,239,244);stroke-width:5.31px;"/>
        </g>
        <g transform="matrix(0.490196,0,0,0.817067,2805.42,1627.81)">
            <path d="M112.568,137.134L112.568,706.538" style="fill:none;stroke:rgb(130,239,244);stroke-width:4.45px;"/>
        </g>
        <g transform="matrix(0.490196,0,0,0.411798,2692,871.574)">
            <path d="M112.568,137.134L112.568,706.538" style="fill:none;stroke:rgb(130,239,244);stroke-width:6.63px;"/>
        </g>
        <g transform="matrix(0.490196,0,0,0.610399,2692,1312.75)">
            <path d="M112.568,137.134L112.568,706.538" style="fill:none;stroke:rgb(130,239,244);stroke-width:5.42px;"/>
        </g>
        <g transform="matrix(0.490196,0,0,0.392516,2692,1914.72)">
            <path d="M112.568,137.134L112.568,706.538" style="fill:none;stroke:rgb(130,239,244);stroke-width:6.76px;"/>
        </g>
        <g transform="matrix(0.490196,0,0,0.172488,2692,2356.38)">
            <path d="M112.568,137.134L112.568,706.538" style="fill:none;stroke:rgb(130,239,244);stroke-width:8.16px;"/>
        </g>
        <g transform="matrix(0.490196,0,0,0.221893,2576.25,900.219)">
            <path d="M112.568,173.188L112.568,706.538" style="fill:none;stroke:rgb(130,239,244);stroke-width:7.88px;"/>
        </g>
        <g transform="matrix(0.490196,0,0,1.00009,2576.25,1148.22)">
            <path d="M112.568,137.134L112.568,706.538" style="fill:none;stroke:rgb(130,239,244);stroke-width:3.81px;"/>
        </g>
        <g transform="matrix(0.490196,0,0,0.422429,2576.25,2022.01)">
            <path d="M112.568,137.134L112.568,706.538" style="fill:none;stroke:rgb(130,239,244);stroke-width:6.56px;"/>
        </g>
        <g transform="matrix(0.490196,0,0,0.624295,2458.4,846.748)">
            <path d="M112.568,137.134L112.568,706.538" style="fill:none;stroke:rgb(130,239,244);stroke-width:5.35px;"/>
        </g>
        <g transform="matrix(0.490196,0,0,0.598321,2458.4,1427.03)">
            <path d="M112.568,137.134L112.568,706.538" style="fill:none;stroke:rgb(130,239,244);stroke-width:5.49px;"/>
        </g>
        <g transform="matrix(0.490196,0,0,0.706971,2458.4,1980.3)">
            <path d="M112.568,137.134L112.568,706.538" style="fill:none;stroke:rgb(130,239,244);stroke-width:4.93px;"/>
        </g>
        <g transform="matrix(0.490196,0,0,0.403357,2348.04,885.623)">
            <path d="M112.568,137.134L112.568,706.538" style="fill:none;stroke:rgb(130,239,244);stroke-width:6.68px;"/>
        </g>
        <g transform="matrix(0.490196,0,0,0.807298,2348.04,1172.52)">
            <path d="M112.568,137.134L112.568,706.538" style="fill:none;stroke:rgb(130,239,244);stroke-width:4.49px;"/>
        </g>
        <g transform="matrix(0.490196,0,0,0.879762,2348.04,1851.23)">
            <path d="M112.568,130.418L112.568,706.538" style="fill:none;stroke:rgb(130,239,244);stroke-width:4.21px;"/>
        </g>
        <g transform="matrix(0.490196,0,0,0.814759,2233.68,367.005)">
            <path d="M112.568,137.134L112.568,706.538" style="fill:none;stroke:rgb(130,239,244);stroke-width:4.46px;"/>
        </g>
        <g transform="matrix(0.490196,0,0,0.430893,2233.68,1220.86)">
            <path d="M112.568,137.134L112.568,706.538" style="fill:none;stroke:rgb(130,239,244);stroke-width:6.5px;"/>
        </g>
        <g transform="matrix(0.490196,0,0,0.818233,2233.68,1633.85)">
            <path d="M112.568,137.134L112.568,706.538" style="fill:none;stroke:rgb(130,239,244);stroke-width:4.45px;"/>
        </g>
        <g transform="matrix(0.490196,0,0,0.123712,2233.68,2395.84)">
            <path d="M112.568,137.134L112.568,706.538" style="fill:none;stroke:rgb(130,239,244);stroke-width:8.39px;"/>
        </g>
        <g transform="matrix(0.490196,0,0,0.605386,2116.75,398.85)">
            <path d="M112.568,137.134L112.568,706.538" style="fill:none;stroke:rgb(130,239,244);stroke-width:5.45px;"/>
        </g>
        <g transform="matrix(0.490196,0,0,0.605386,2116.75,1088.23)">
            <path d="M112.568,137.134L112.568,706.538" style="fill:none;stroke:rgb(130,239,244);stroke-width:5.45px;"/>
        </g>
        <g transform="matrix(0.490196,0,0,1.00998,2116.75,1711.05)">
            <path d="M112.568,137.134L112.568,706.538" style="fill:none;stroke:rgb(130,239,244);stroke-width:3.78px;"/>
        </g>
        <g transform="matrix(0.490196,0,0,1.22077,2002.92,1000.41)">
            <path d="M112.568,137.134L112.568,706.538" style="fill:none;stroke:rgb(130,239,244);stroke-width:3.23px;"/>
        </g>
        <g transform="matrix(0.490196,0,0,0.235952,2002.92,2043.02)">
            <path d="M112.568,137.134L112.568,706.538" style="fill:none;stroke:rgb(130,239,244);stroke-width:7.8px;"/>
        </g>
        <g transform="matrix(0.490196,0,0,0.235952,2002.92,2270.09)">
            <path d="M112.568,200.799L112.568,706.538" style="fill:none;stroke:rgb(130,239,244);stroke-width:7.8px;"/>
        </g>
        <path d="M2058.1,2317.47L1945.35,2200.78" style="fill:none;stroke:rgb(130,239,244);stroke-width:3px;"/>
        <g transform="matrix(0.490196,0,0,0.611308,1889.58,632.278)">
            <path d="M112.568,137.134L112.568,693.511" style="fill:none;stroke:rgb(130,239,244);stroke-width:5.41px;"/>
        </g>
        <path d="M1944.76,1056.23L2058.41,1168.09" style="fill:none;stroke:rgb(130,239,244);stroke-width:3px;"/>
        <g transform="matrix(0.490196,0,0,0.416158,1889.58,1116.21)">
            <path d="M112.568,137.134L112.568,706.538" style="fill:none;stroke:rgb(130,239,244);stroke-width:6.6px;"/>
        </g>
        <g transform="matrix(0.490196,0,0,0.803171,1889.58,1631.9)">
            <path d="M112.568,137.134L112.568,706.538" style="fill:none;stroke:rgb(130,239,244);stroke-width:4.51px;"/>
        </g>
        <g transform="matrix(0.490196,0,0,0.163838,1889.58,2367.08)">
            <path d="M112.568,137.134L112.568,706.538" style="fill:none;stroke:rgb(130,239,244);stroke-width:8.21px;"/>
        </g>
        <g transform="matrix(0.490196,0,0,1.01917,1771.94,231.24)">
            <path d="M112.568,137.134L112.568,696.377" style="fill:none;stroke:rgb(130,239,244);stroke-width:3.75px;"/>
        </g>
        <path d="M1827.12,940.964L1713.52,1051.09" style="fill:none;stroke:rgb(130,239,244);stroke-width:3px;"/>
        <g transform="matrix(0.490196,0,0,0.82145,1771.94,944.187)">
            <path d="M112.568,137.134L112.568,690.203" style="fill:none;stroke:rgb(130,239,244);stroke-width:4.44px;"/>
        </g>
        <path d="M1827.12,1511.15L1943.8,1628.61" style="fill:none;stroke:rgb(130,239,244);stroke-width:3px;"/>
        <g transform="matrix(1,0,0,1,-115.711,115.711)">
            <path d="M1827.12,1511.15L1943.8,1628.61" style="fill:none;stroke:rgb(130,239,244);stroke-width:3px;"/>
        </g>
        <g transform="matrix(0.490196,0,0,0.82145,1771.94,1628.17)">
            <path d="M112.568,137.134L112.568,706.538" style="fill:none;stroke:rgb(130,239,244);stroke-width:4.44px;"/>
        </g>
        <g transform="matrix(0.490196,0,0,0.139287,1771.94,2394.17)">
            <path d="M112.568,137.134L112.568,706.538" style="fill:none;stroke:rgb(130,239,244);stroke-width:8.33px;"/>
        </g>
        <g transform="matrix(1,0,0,0.409046,1600.56,649.195)">
            <path d="M112.568,137.134L112.568,706.538" style="fill:none;stroke:rgb(130,239,244);stroke-width:3.93px;"/>
        </g>
        <g transform="matrix(1,0,0,0.605339,1600.56,967.703)">
            <path d="M112.568,137.134L112.568,706.538" style="fill:none;stroke:rgb(130,239,244);stroke-width:3.63px;"/>
        </g>
        <g transform="matrix(1,0,0,0.605339,1600.56,1764.85)">
            <path d="M112.568,137.134L112.568,706.538" style="fill:none;stroke:rgb(130,239,244);stroke-width:3.63px;"/>
        </g>
        <g transform="matrix(1,0,0,0.281814,1600.56,2279.52)">
            <path d="M112.568,137.134L112.568,706.538" style="fill:none;stroke:rgb(130,239,244);stroke-width:4.08px;"/>
        </g>
        <g transform="matrix(1,0,0,0.79072,1483.17,603.015)">
            <path d="M112.568,137.134L112.568,706.538" style="fill:none;stroke:rgb(130,239,244);stroke-width:3.33px;"/>
        </g>
        <g transform="matrix(1,0,0,1.43502,1483.17,1192.46)">
            <path d="M112.568,137.134L112.568,706.538" style="fill:none;stroke:rgb(130,239,244);stroke-width:2.43px;"/>
        </g>
        <g transform="matrix(1,0,0,0.126929,1483.17,2389.16)">
            <path d="M112.568,137.134L112.568,706.538" style="fill:none;stroke:rgb(130,239,244);stroke-width:4.21px;"/>
        </g>
        <g transform="matrix(1,0,0,0.60014,1369.26,738.238)">
            <path d="M112.568,137.134L112.568,706.538" style="fill:none;stroke:rgb(130,239,244);stroke-width:3.64px;"/>
        </g>
        <g transform="matrix(1,0,0,0.815528,1369.26,1166.32)">
            <path d="M112.568,137.134L112.568,706.538" style="fill:none;stroke:rgb(130,239,244);stroke-width:3.29px;"/>
        </g>
        <g transform="matrix(1,0,0,0.815528,1369.26,1843.51)">
            <path d="M112.568,156.111L112.568,706.538" style="fill:none;stroke:rgb(130,239,244);stroke-width:3.29px;"/>
        </g>
        <path d="M1481.83,1970.82L1367.77,1858.78" style="fill:none;stroke:rgb(130,239,244);stroke-width:3px;"/>
        <g transform="matrix(1,0,0,0.211681,1254.61,911.205)">
            <path d="M112.568,137.134L112.568,706.538" style="fill:none;stroke:rgb(130,239,244);stroke-width:4.15px;"/>
        </g>
        <g transform="matrix(1,0,0,0.396876,1254.61,1227.72)">
            <path d="M112.568,137.134L112.568,706.538" style="fill:none;stroke:rgb(130,239,244);stroke-width:3.94px;"/>
        </g>
        <g transform="matrix(1,0,0,0.396876,1254.61,1577.26)">
            <path d="M112.568,137.134L112.568,706.538" style="fill:none;stroke:rgb(130,239,244);stroke-width:3.94px;"/>
        </g>
        <g transform="matrix(1,0,0,0.606785,1254.61,1891.48)">
            <path d="M112.568,137.134L112.568,706.538" style="fill:none;stroke:rgb(130,239,244);stroke-width:3.63px;"/>
        </g>
        <g transform="matrix(1,0,0,1.41031,1139.46,973.651)">
            <path d="M112.568,137.134L112.568,706.538" style="fill:none;stroke:rgb(130,239,244);stroke-width:2.45px;"/>
        </g>
        <g transform="matrix(1,0,0,0.40844,1139.46,2023.14)">
            <path d="M112.568,137.134L112.568,706.538" style="fill:none;stroke:rgb(130,239,244);stroke-width:3.93px;"/>
        </g>
        <g transform="matrix(1,0,0,0.418093,1031.38,649.375)">
            <path d="M112.568,137.134L112.568,706.538" style="fill:none;stroke:rgb(130,239,244);stroke-width:3.91px;"/>
        </g>
        <g transform="matrix(1,0,0,1.61541,1031.38,834.006)">
            <path d="M112.568,137.134L112.568,706.538" style="fill:none;stroke:rgb(130,239,244);stroke-width:2.23px;"/>
        </g>
        <g transform="matrix(1,0,0,0.432362,1031.38,2135.53)">
            <path d="M112.568,137.134L112.568,706.538" style="fill:none;stroke:rgb(130,239,244);stroke-width:3.89px;"/>
        </g>
        <g transform="matrix(1,0,0,0.428934,912.665,640.374)">
            <path d="M112.568,162.042L112.568,706.538" style="fill:none;stroke:rgb(130,239,244);stroke-width:3.9px;"/>
        </g>
        <path d="M1143.83,592.853L1025.23,709.88" style="fill:none;stroke:rgb(130,239,244);stroke-width:3px;"/>
        <g transform="matrix(1,0,0,0.580835,912.665,1104.14)">
            <path d="M112.568,109.421L112.568,706.538" style="fill:none;stroke:rgb(130,239,244);stroke-width:3.67px;"/>
        </g>
        <g transform="matrix(1,0,0,0.777944,912.665,1527.16)">
            <path d="M112.568,137.134L112.568,713.478" style="fill:none;stroke:rgb(130,239,244);stroke-width:3.35px;"/>
        </g>
        <path d="M1025.23,2082.21L911.164,2200.2" style="fill:none;stroke:rgb(130,239,244);stroke-width:3px;"/>
        <g transform="matrix(1,0,0,0.10837,912.665,2398.49)">
            <path d="M112.568,-822.751L112.568,706.538" style="fill:none;stroke:rgb(130,239,244);stroke-width:4.22px;"/>
        </g>
        <g transform="matrix(1,0,0,0.407997,799.408,761.348)">
            <path d="M112.568,137.134L112.568,706.538" style="fill:none;stroke:rgb(130,239,244);stroke-width:3.93px;"/>
        </g>
        <g transform="matrix(1,0,0,1.40893,799.408,983.916)">
            <path d="M112.568,132.237L112.568,706.538" style="fill:none;stroke:rgb(130,239,244);stroke-width:2.46px;"/>
        </g>
        <path d="M1258.36,938.642L1144.65,1053.57" style="fill:none;stroke:rgb(130,239,244);stroke-width:3px;"/>
        <g transform="matrix(1,0,0,0.482397,799.408,2135.34)">
            <path d="M112.568,137.134L112.568,706.538" style="fill:none;stroke:rgb(130,239,244);stroke-width:3.82px;"/>
        </g>
        <g transform="matrix(1,0,0,0.606808,684.359,1419.49)">
            <path d="M112.568,137.134L112.568,706.538" style="fill:none;stroke:rgb(130,239,244);stroke-width:3.63px;"/>
        </g>
        <g transform="matrix(1,0,0,0.391793,684.359,1918.83)">
            <path d="M112.568,137.134L112.568,724.248" style="fill:none;stroke:rgb(130,239,244);stroke-width:3.95px;"/>
        </g>
        <g transform="matrix(1,0,0,0.29515,684.359,2270)">
            <path d="M112.568,137.134L112.568,706.538" style="fill:none;stroke:rgb(130,239,244);stroke-width:4.07px;"/>
        </g>
        <g transform="matrix(1,0,0,0.789368,569.271,610.064)">
            <path d="M112.568,137.134L112.568,706.538" style="fill:none;stroke:rgb(130,239,244);stroke-width:3.33px;"/>
        </g>
        <g transform="matrix(1,0,0,0.417183,569.271,1340.47)">
            <path d="M112.568,137.134L112.568,706.538" style="fill:none;stroke:rgb(130,239,244);stroke-width:3.92px;"/>
        </g>
        <g transform="matrix(1,0,0,0.197855,569.271,1712.42)">
            <path d="M112.568,137.134L112.568,706.538" style="fill:none;stroke:rgb(130,239,244);stroke-width:4.16px;"/>
        </g>
        <g transform="matrix(1,0,0,0.425251,569.271,1904.55)">
            <path d="M112.568,137.134L112.568,706.538" style="fill:none;stroke:rgb(130,239,244);stroke-width:3.9px;"/>
        </g>
        <g transform="matrix(1,0,0,0.301119,569.271,2264.47)">
            <path d="M112.568,180.502L112.568,706.538" style="fill:none;stroke:rgb(130,239,244);stroke-width:4.06px;"/>
        </g>
        <path d="M681.839,2318.83L796.441,2204.11" style="fill:none;stroke:rgb(130,239,244);stroke-width:3px;"/>
        <g transform="matrix(1,0,0,1.19816,456.319,651.888)">
            <path d="M112.568,137.134L112.568,717.201L-1.802,814.709" style="fill:none;stroke:rgb(130,239,244);stroke-width:2.72px;"/>
        </g>
        <path d="M339.769,2089.45L569.522,2316.47" style="fill:none;stroke:rgb(130,239,244);stroke-width:3px;"/>
        <g transform="matrix(1,0,0,0.780159,456.319,1541.49)">
            <path d="M112.568,137.134L112.568,706.538" style="fill:none;stroke:rgb(130,239,244);stroke-width:3.35px;"/>
        </g>
        <g transform="matrix(1,0,0,0.283936,456.319,2277.09)">
            <path d="M112.568,137.134L112.568,706.538" style="fill:none;stroke:rgb(130,239,244);stroke-width:4.08px;"/>
        </g>
        <g transform="matrix(1,0,0,0.610492,340.686,743.602)">
            <path d="M112.568,137.134L112.568,706.538" style="fill:none;stroke:rgb(130,239,244);stroke-width:3.62px;"/>
        </g>
        <g transform="matrix(1,0,0,0.202588,340.686,1259.46)">
            <path d="M112.568,137.134L112.568,706.538" style="fill:none;stroke:rgb(130,239,244);stroke-width:4.16px;"/>
        </g>
        <g transform="matrix(1,0,0,0.640196,340.686,1526.05)">
            <path d="M112.568,159.373L112.568,706.538" style="fill:none;stroke:rgb(130,239,244);stroke-width:3.57px;"/>
        </g>
        <g transform="matrix(1,0,0,0.276801,340.686,2282.91)">
            <path d="M112.568,137.134L112.568,706.538" style="fill:none;stroke:rgb(130,239,244);stroke-width:4.09px;"/>
        </g>
        <g transform="matrix(1,0,0,0.412963,226.606,1108.77)">
            <path d="M112.568,137.134L112.568,706.538" style="fill:none;stroke:rgb(130,239,244);stroke-width:3.92px;"/>
        </g>
        <g transform="matrix(1,0,0,1.01488,226.606,1372.71)">
            <path d="M112.568,137.134L112.568,706.538" style="fill:none;stroke:rgb(130,239,244);stroke-width:2.98px;"/>
        </g>
        <g transform="matrix(1,0,0,0.151667,226.606,2371.14)">
            <path d="M112.568,366.876L112.568,706.538" style="fill:none;stroke:rgb(130,239,244);stroke-width:4.19px;"/>
        </g>
        <g transform="matrix(1,0,0,1.24404,114.505,863.573)">
            <path d="M224.975,60.555L112.568,152.867L112.568,706.538" style="fill:none;stroke:rgb(130,239,244);stroke-width:2.66px;"/>
        </g>
        <g transform="matrix(1,0,0,0.621077,114.505,1883.27)">
            <path d="M112.568,137.134L112.568,706.538" style="fill:none;stroke:rgb(130,239,244);stroke-width:3.6px;"/>
        </g>
        <g transform="matrix(1,0,0,0.61245,0,978.569)">
            <path d="M110.62,119.781L112.568,706.538" style="fill:none;stroke:rgb(130,239,244);stroke-width:3.62px;"/>
        </g>
        <g transform="matrix(1,0,0,0.592539,0,1434.91)">
            <path d="M112.568,137.134L112.568,706.538" style="fill:none;stroke:rgb(130,239,244);stroke-width:3.65px;"/>
        </g>
        <g transform="matrix(1,0,0,0.6647,0,1864.67)">
            <path d="M112.568,137.134L112.568,706.538" style="fill:none;stroke:rgb(130,239,244);stroke-width:3.53px;"/>
        </g>
        <path d="M112.711,1855.35L226.624,1966.06" style="fill:none;stroke:rgb(130,239,244);stroke-width:3px;"/>
        <path d="M340.39,2316.1L176.861,2480.17" style="fill:none;stroke:rgb(130,239,244);stroke-width:3px;"/>
        <path d="M797.081,1970.1L683.054,1853.1" style="fill:none;stroke:rgb(130,239,244);stroke-width:3px;"/>
        <path d="M682.138,1396.51L796.641,1280.03" style="fill:none;stroke:rgb(130,239,244);stroke-width:3px;"/>
        <path d="M453.682,824.968L682.453,592.998" style="fill:none;stroke:rgb(130,239,244);stroke-width:3px;"/>
        <path d="M912.106,1052.53L1026.56,1167.34" style="fill:none;stroke:rgb(130,239,244);stroke-width:3px;"/>
        <path d="M1252.34,822.81L1366.57,939.301" style="fill:none;stroke:rgb(130,239,244);stroke-width:3px;"/>
        <path d="M1145.76,1975.72L1251.34,2080.03" style="fill:none;stroke:rgb(130,239,244);stroke-width:3px;"/>
        <path d="M1145.82,2442.46L1187.32,2483.96" style="fill:none;stroke:rgb(130,239,244);stroke-width:3px;"/>
        <path d="M1251.99,2314.26L1418.65,2480.11" style="fill:none;stroke:rgb(130,239,244);stroke-width:3px;"/>
        <path d="M1367.26,1282.42L1481.89,1164.29" style="fill:none;stroke:rgb(130,239,244);stroke-width:3px;"/>
        <g transform="matrix(1,0,0,1,113.521,0)">
            <path d="M1367.26,1282.42L1481.89,1164.29" style="fill:none;stroke:rgb(130,239,244);stroke-width:3px;"/>
        </g>
        <g transform="matrix(1,0,0,1,-1,2)">
            <path d="M1483.2,818.26L1368.72,704.87" style="fill:none;stroke:rgb(130,239,244);stroke-width:3px;"/>
        </g>
        <g transform="matrix(1,0,0,1,112.062,-109.062)">
            <path d="M1483.2,818.26L1368.72,704.87" style="fill:none;stroke:rgb(130,239,244);stroke-width:3px;"/>
        </g>
        <path d="M1596.26,593.558L1713.79,477.005" style="fill:none;stroke:rgb(130,239,244);stroke-width:3px;"/>
        <path d="M2169.28,1051.4L2403.54,1282.86" style="fill:none;stroke:rgb(130,239,244);stroke-width:3px;"/>
        <path d="M2290.03,1744.98L2169.71,1624.64" style="fill:none;stroke:rgb(130,239,244);stroke-width:3px;"/>
        <path d="M2513.77,1852.08L2402.92,1965.48" style="fill:none;stroke:rgb(130,239,244);stroke-width:3px;"/>
        <path d="M2172.17,2426.69L2117.53,2481.64" style="fill:none;stroke:rgb(130,239,244);stroke-width:3px;"/>
        <path d="M2976.2,2320.33L2860.47,2205" style="fill:none;stroke:rgb(130,239,244);stroke-width:3px;"/>
        <path d="M2746.91,1966.8L2632.25,1855.39" style="fill:none;stroke:rgb(130,239,244);stroke-width:3px;"/>
        <path d="M2860.98,1738.54L3086.93,1509.52" style="fill:none;stroke:rgb(130,239,244);stroke-width:3px;"/>
        <g transform="matrix(1,0,0,1,114.902,0)">
            <path d="M2860.98,1738.54L3086.93,1509.52" style="fill:none;stroke:rgb(130,239,244);stroke-width:3px;"/>
        </g>
        <path d="M3430.84,1746.85L3316.05,1632.63" style="fill:none;stroke:rgb(130,239,244);stroke-width:3px;"/>
        <path d="M3432.43,1518.81L3509.15,1592.83" style="fill:none;stroke:rgb(130,239,244);stroke-width:3px;"/>
        <path d="M2749.62,1164.1L2633.02,1282.63" style="fill:none;stroke:rgb(130,239,244);stroke-width:3px;"/>
        <path d="M2514.96,820.691L2631.68,938.909" style="fill:none;stroke:rgb(130,239,244);stroke-width:3px;"/>
        <g transform="matrix(1,0,0,1,-114.034,0)">
            <path d="M2517,822.428L2627.09,932.497" style="fill:none;stroke:rgb(130,239,244);stroke-width:3px;"/>
        </g>
        <path d="M1827.46,2208.95L1714.4,2317.38" style="fill:none;stroke:rgb(130,239,244);stroke-width:3px;"/>
        <g id="Capa6">
            <path d="M226.921,710.993L-1.252,939.362" style="fill:none;stroke:rgb(130,239,244);stroke-width:3px;"/>
            <g transform="matrix(1,0,0,1,0,106.738)">
                <path d="M226.921,710.993L-1.252,939.362" style="fill:none;stroke:rgb(130,239,244);stroke-width:3px;"/>
            </g>
            <g transform="matrix(1,0,0,1,0,226.691)">
                <path d="M226.921,710.993L112.56,824.206" style="fill:none;stroke:rgb(130,239,244);stroke-width:3px;"/>
            </g>
        </g>
    </g>
    <g id="Capa5">
        <circle cx="108.627" cy="1432.14" r="34.555" style="stroke:rgb(130,239,244);stroke-width:3px;"/>
        <g transform="matrix(1,0,0,1,230.851,-302.811)">
            <circle cx="108.627" cy="1432.14" r="34.555" style="stroke:rgb(130,239,244);stroke-width:3px;"/>
        </g>
        <g transform="matrix(1,0,0,1,343.907,-233.195)">
            <circle cx="108.627" cy="1432.14" r="34.555" style="stroke:rgb(130,239,244);stroke-width:3px;"/>
        </g>
        <g transform="matrix(1,0,0,1,575.209,-233.195)">
            <circle cx="108.627" cy="1432.14" r="34.555" style="stroke:rgb(130,239,244);stroke-width:3px;"/>
        </g>
        <g transform="matrix(1,0,0,1,1147.17,-302.811)">
            <circle cx="108.627" cy="1432.14" r="34.555" style="stroke:rgb(130,239,244);stroke-width:3px;"/>
        </g>
        <g transform="matrix(1,0,0,1,919.341,-458.533)">
            <circle cx="108.627" cy="1432.14" r="34.555" style="stroke:rgb(130,239,244);stroke-width:3px;"/>
        </g>
        <g transform="matrix(1,0,0,1,1261.66,-348.704)">
            <circle cx="108.627" cy="1432.14" r="34.555" style="stroke:rgb(130,239,244);stroke-width:3px;"/>
        </g>
        <g transform="matrix(1,0,0,1,1947.41,-460.842)">
            <circle cx="108.627" cy="1432.14" r="34.555" style="stroke:rgb(130,239,244);stroke-width:3px;"/>
        </g>
        <g transform="matrix(1,0,0,1,1947.41,450.769)">
            <circle cx="108.627" cy="1432.14" r="34.555" style="stroke:rgb(130,239,244);stroke-width:3px;"/>
        </g>
        <g transform="matrix(1,0,0,1,1947.41,626.121)">
            <circle cx="108.627" cy="1432.14" r="34.555" style="stroke:rgb(130,239,244);stroke-width:3px;"/>
        </g>
        <g transform="matrix(1,0,0,1,2064.73,-574.493)">
            <circle cx="108.627" cy="1432.14" r="34.555" style="stroke:rgb(130,239,244);stroke-width:3px;"/>
        </g>
        <g transform="matrix(1,0,0,1,2174.92,-462.015)">
            <circle cx="108.627" cy="1432.14" r="34.555" style="stroke:rgb(130,239,244);stroke-width:3px;"/>
        </g>
        <g transform="matrix(1,0,0,1,2174.92,113.9)">
            <circle cx="108.627" cy="1432.14" r="34.555" style="stroke:rgb(130,239,244);stroke-width:3px;"/>
        </g>
        <g transform="matrix(1,0,0,1,2174.92,805.029)">
            <circle cx="108.627" cy="1432.14" r="34.555" style="stroke:rgb(130,239,244);stroke-width:3px;"/>
        </g>
        <g transform="matrix(1,0,0,1,2174.92,964.528)">
            <circle cx="108.627" cy="1432.14" r="34.555" style="stroke:rgb(130,239,244);stroke-width:3px;"/>
        </g>
        <g transform="matrix(1,0,0,1,2632.82,-528.913)">
            <circle cx="108.627" cy="1432.14" r="34.555" style="stroke:rgb(130,239,244);stroke-width:3px;"/>
        </g>
        <g transform="matrix(1,0,0,1,2632.82,-66.6721)">
            <circle cx="108.627" cy="1432.14" r="34.555" style="stroke:rgb(130,239,244);stroke-width:3px;"/>
        </g>
        <g transform="matrix(1,0,0,1,2978.67,-66.6721)">
            <circle cx="108.627" cy="1432.14" r="34.555" style="stroke:rgb(130,239,244);stroke-width:3px;"/>
        </g>
        <g transform="matrix(1,0,0,1,2978.67,387.819)">
            <circle cx="108.627" cy="1432.14" r="34.555" style="stroke:rgb(130,239,244);stroke-width:3px;"/>
        </g>
        <g transform="matrix(1,0,0,1,2863.83,-3.2767)">
            <circle cx="108.627" cy="1432.14" r="34.555" style="stroke:rgb(130,239,244);stroke-width:3px;"/>
        </g>
        <g transform="matrix(1,0,0,1,2863.83,684.831)">
            <circle cx="108.627" cy="1432.14" r="34.555" style="stroke:rgb(130,239,244);stroke-width:3px;"/>
        </g>
        <g transform="matrix(1,0,0,1,2748.56,115.97)">
            <circle cx="108.627" cy="1432.14" r="34.555" style="stroke:rgb(130,239,244);stroke-width:3px;"/>
        </g>
        <g transform="matrix(1,0,0,1,2636.15,345.182)">
            <circle cx="108.627" cy="1432.14" r="34.555" style="stroke:rgb(130,239,244);stroke-width:3px;"/>
        </g>
        <g transform="matrix(1,0,0,1,2862.92,-462.947)">
            <circle cx="108.627" cy="1432.14" r="34.555" style="stroke:rgb(130,239,244);stroke-width:3px;"/>
        </g>
        <g transform="matrix(1,0,0,1,2749.52,-462.947)">
            <circle cx="108.627" cy="1432.14" r="34.555" style="stroke:rgb(130,239,244);stroke-width:3px;"/>
        </g>
        <g transform="matrix(1,0,0,1,2519,-344.348)">
            <circle cx="108.627" cy="1432.14" r="34.555" style="stroke:rgb(130,239,244);stroke-width:3px;"/>
        </g>
        <g transform="matrix(1,0,0,1,2748.11,-304.743)">
            <circle cx="108.627" cy="1432.14" r="34.555" style="stroke:rgb(130,239,244);stroke-width:3px;"/>
        </g>
        <g transform="matrix(1,0,0,1,3205.71,-304.743)">
            <circle cx="108.627" cy="1432.14" r="34.555" style="stroke:rgb(130,239,244);stroke-width:3px;"/>
        </g>
        <g transform="matrix(1,0,0,1,3205.71,382.165)">
            <circle cx="108.627" cy="1432.14" r="34.555" style="stroke:rgb(130,239,244);stroke-width:3px;"/>
        </g>
        <g transform="matrix(1,0,0,1,2978.37,-232.244)">
            <circle cx="108.627" cy="1432.14" r="34.555" style="stroke:rgb(130,239,244);stroke-width:3px;"/>
        </g>
        <g transform="matrix(1,0,0,1,2406.3,-120.492)">
            <circle cx="108.627" cy="1432.14" r="34.555" style="stroke:rgb(130,239,244);stroke-width:3px;"/>
        </g>
        <g transform="matrix(1,0,0,1,2406.3,49.4083)">
            <circle cx="108.627" cy="1432.14" r="34.555" style="stroke:rgb(130,239,244);stroke-width:3px;"/>
        </g>
        <g transform="matrix(1,0,0,1,2406.3,614.866)">
            <circle cx="108.627" cy="1432.14" r="34.555" style="stroke:rgb(130,239,244);stroke-width:3px;"/>
        </g>
        <g transform="matrix(1,0,0,1,2519.61,614.866)">
            <circle cx="108.627" cy="1432.14" r="34.555" style="stroke:rgb(130,239,244);stroke-width:3px;"/>
        </g>
        <g transform="matrix(1,0,0,1,2519.61,915.969)">
            <circle cx="108.627" cy="1432.14" r="34.555" style="stroke:rgb(130,239,244);stroke-width:3px;"/>
        </g>
        <g transform="matrix(1,0,0,1,2630.75,915.969)">
            <circle cx="108.627" cy="1432.14" r="34.555" style="stroke:rgb(130,239,244);stroke-width:3px;"/>
        </g>
        <g transform="matrix(1,0,0,1,2746.53,961.421)">
            <circle cx="108.627" cy="1432.14" r="34.555" style="stroke:rgb(130,239,244);stroke-width:3px;"/>
        </g>
        <g transform="matrix(1,0,0,1,1490.35,-66.054)">
            <circle cx="108.627" cy="1432.14" r="34.555" style="stroke:rgb(130,239,244);stroke-width:3px;"/>
        </g>
        <g transform="matrix(1,0,0,1,3322.88,-581.389)">
            <circle cx="108.627" cy="1432.14" r="34.555" style="stroke:rgb(130,239,244);stroke-width:3px;"/>
        </g>
        <g transform="matrix(1,0,0,1,3322.88,957.288)">
            <circle cx="108.627" cy="1432.14" r="34.555" style="stroke:rgb(130,239,244);stroke-width:3px;"/>
        </g>
        <g transform="matrix(1,0,0,1,805.158,-646.111)">
            <circle cx="108.627" cy="1432.14" r="34.555" style="stroke:rgb(130,239,244);stroke-width:3px;"/>
        </g>
        <g transform="matrix(1,0,0,1,1604.11,-763.739)">
            <circle cx="108.627" cy="1432.14" r="34.555" style="stroke:rgb(130,239,244);stroke-width:3px;"/>
        </g>
        <g transform="matrix(1,0,0,1,2519.92,-694.359)">
            <circle cx="108.627" cy="1432.14" r="34.555" style="stroke:rgb(130,239,244);stroke-width:3px;"/>
        </g>
        <g transform="matrix(1,0,0,1,117.304,-1224.72)">
            <circle cx="108.627" cy="1432.14" r="34.555" style="stroke:rgb(130,239,244);stroke-width:3px;"/>
        </g>
        <g transform="matrix(1,0,0,1,344.466,-1224.72)">
            <circle cx="108.627" cy="1432.14" r="34.555" style="stroke:rgb(130,239,244);stroke-width:3px;"/>
        </g>
        <g transform="matrix(1,0,0,1,459.092,-917.263)">
            <circle cx="108.627" cy="1432.14" r="34.555" style="stroke:rgb(130,239,244);stroke-width:3px;"/>
        </g>
        <g transform="matrix(1,0,0,1,918.037,-917.263)">
            <circle cx="108.627" cy="1432.14" r="34.555" style="stroke:rgb(130,239,244);stroke-width:3px;"/>
        </g>
        <g transform="matrix(1,0,0,1,1260.54,-851.906)">
            <circle cx="108.627" cy="1432.14" r="34.555" style="stroke:rgb(130,239,244);stroke-width:3px;"/>
        </g>
        <g transform="matrix(1,0,0,1,2749.52,-881.514)">
            <circle cx="108.627" cy="1432.14" r="34.555" style="stroke:rgb(130,239,244);stroke-width:3px;"/>
        </g>
        <g transform="matrix(1,0,0,1,1029.6,-1154.38)">
            <circle cx="108.627" cy="1432.14" r="34.555" style="stroke:rgb(130,239,244);stroke-width:3px;"/>
        </g>
        <g transform="matrix(1,0,0,1,1718.12,-1154.38)">
            <circle cx="108.627" cy="1432.14" r="34.555" style="stroke:rgb(130,239,244);stroke-width:3px;"/>
        </g>
        <g transform="matrix(1,0,0,1,2064.78,-1154.38)">
            <circle cx="108.627" cy="1432.14" r="34.555" style="stroke:rgb(130,239,244);stroke-width:3px;"/>
        </g>
        <g transform="matrix(1,0,0,1,2863.58,-1154.38)">
            <circle cx="108.627" cy="1432.14" r="34.555" style="stroke:rgb(130,239,244);stroke-width:3px;"/>
        </g>
        <g transform="matrix(1,0,0,1,575.209,-1224.72)">
            <circle cx="108.627" cy="1432.14" r="34.555" style="stroke:rgb(130,239,244);stroke-width:3px;"/>
        </g>
        <g transform="matrix(1,0,0,1,688.265,-1224.72)">
            <circle cx="108.627" cy="1432.14" r="34.555" style="stroke:rgb(130,239,244);stroke-width:3px;"/>
        </g>
        <g transform="matrix(1,0,0,1,1261.01,-1224.72)">
            <circle cx="108.627" cy="1432.14" r="34.555" style="stroke:rgb(130,239,244);stroke-width:3px;"/>
        </g>
        <g transform="matrix(1,0,0,1,1487.62,-1224.72)">
            <circle cx="108.627" cy="1432.14" r="34.555" style="stroke:rgb(130,239,244);stroke-width:3px;"/>
        </g>
        <g transform="matrix(1,0,0,1,2288.7,-1224.72)">
            <circle cx="108.627" cy="1432.14" r="34.555" style="stroke:rgb(130,239,244);stroke-width:3px;"/>
        </g>
        <g transform="matrix(1,0,0,1,2521.76,-1224.72)">
            <circle cx="108.627" cy="1432.14" r="34.555" style="stroke:rgb(130,239,244);stroke-width:3px;"/>
        </g>
        <g transform="matrix(1,0,0,1,2975.89,-1224.72)">
            <circle cx="108.627" cy="1432.14" r="34.555" style="stroke:rgb(130,239,244);stroke-width:3px;"/>
        </g>
        <g transform="matrix(1,0,0,1,3203.17,-1224.72)">
            <circle cx="108.627" cy="1432.14" r="34.555" style="stroke:rgb(130,239,244);stroke-width:3px;"/>
        </g>
        <g transform="matrix(1,0,0,1,3319.74,-1224.72)">
            <circle cx="108.627" cy="1432.14" r="34.555" style="stroke:rgb(130,239,244);stroke-width:3px;"/>
        </g>
        <g transform="matrix(1,0,0,1,117.304,351.645)">
            <circle cx="108.627" cy="1432.14" r="34.555" style="stroke:rgb(130,239,244);stroke-width:3px;"/>
        </g>
        <g transform="matrix(1,0,0,1,347.694,575.197)">
            <circle cx="108.627" cy="1432.14" r="34.555" style="stroke:rgb(130,239,244);stroke-width:3px;"/>
        </g>
        <g transform="matrix(1,0,0,1,461.446,688.263)">
            <circle cx="108.627" cy="1432.14" r="34.555" style="stroke:rgb(130,239,244);stroke-width:3px;"/>
        </g>
        <g transform="matrix(1,0,0,1,575.307,504.738)">
            <circle cx="108.627" cy="1432.14" r="34.555" style="stroke:rgb(130,239,244);stroke-width:3px;"/>
        </g>
        <g transform="matrix(1,0,0,1,803.038,578.251)">
            <circle cx="108.627" cy="1432.14" r="34.555" style="stroke:rgb(130,239,244);stroke-width:3px;"/>
        </g>
        <g transform="matrix(1,0,0,1,1034.52,735.602)">
            <circle cx="108.627" cy="1432.14" r="34.555" style="stroke:rgb(130,239,244);stroke-width:3px;"/>
        </g>
        <g transform="matrix(1,0,0,1,917.606,847.196)">
            <circle cx="108.627" cy="1432.14" r="34.555" style="stroke:rgb(130,239,244);stroke-width:3px;"/>
        </g>
        <g transform="matrix(1,0,0,1,574.267,225.374)">
            <circle cx="108.627" cy="1432.14" r="34.555" style="stroke:rgb(130,239,244);stroke-width:3px;"/>
        </g>
        <g transform="matrix(1,0,0,1,916.8,113.672)">
            <circle cx="108.627" cy="1432.14" r="34.555" style="stroke:rgb(130,239,244);stroke-width:3px;"/>
        </g>
        <g transform="matrix(1,0,0,1,1261.44,160.252)">
            <circle cx="108.627" cy="1432.14" r="34.555" style="stroke:rgb(130,239,244);stroke-width:3px;"/>
        </g>
        <g transform="matrix(1,0,0,1,1374.78,345.671)">
            <circle cx="108.627" cy="1432.14" r="34.555" style="stroke:rgb(130,239,244);stroke-width:3px;"/>
        </g>
        <g transform="matrix(1,0,0,1,1603.79,397.745)">
            <circle cx="108.627" cy="1432.14" r="34.555" style="stroke:rgb(130,239,244);stroke-width:3px;"/>
        </g>
        <g transform="matrix(1,0,0,1,2061.26,397.745)">
            <circle cx="108.627" cy="1432.14" r="34.555" style="stroke:rgb(130,239,244);stroke-width:3px;"/>
        </g>
        <g transform="matrix(1,0,0,1,1604.85,-9.72421)">
            <circle cx="108.627" cy="1432.14" r="34.555" style="stroke:rgb(130,239,244);stroke-width:3px;"/>
        </g>
        <g transform="matrix(1,0,0,1,1834.74,-5.72421)">
            <circle cx="108.627" cy="1432.14" r="34.555" style="stroke:rgb(130,239,244);stroke-width:3px;"/>
        </g>
        <g transform="matrix(1,0,0,1,1834.74,278.76)">
            <circle cx="108.627" cy="1432.14" r="34.555" style="stroke:rgb(130,239,244);stroke-width:3px;"/>
        </g>
        <g transform="matrix(1,0,0,1,1834.74,958.147)">
            <circle cx="108.627" cy="1432.14" r="34.555" style="stroke:rgb(130,239,244);stroke-width:3px;"/>
        </g>
        <g transform="matrix(1,0,0,1,1718.17,958.147)">
            <circle cx="108.627" cy="1432.14" r="34.555" style="stroke:rgb(130,239,244);stroke-width:3px;"/>
        </g>
        <g transform="matrix(1,0,0,1,1490.4,958.147)">
            <circle cx="108.627" cy="1432.14" r="34.555" style="stroke:rgb(130,239,244);stroke-width:3px;"/>
        </g>
        <g transform="matrix(1,0,0,1,1490.4,800.09)">
            <circle cx="108.627" cy="1432.14" r="34.555" style="stroke:rgb(130,239,244);stroke-width:3px;"/>
        </g>
        <g transform="matrix(1,0,0,1,117.304,915.269)">
            <circle cx="108.627" cy="1432.14" r="34.555" style="stroke:rgb(130,239,244);stroke-width:3px;"/>
        </g>
        <g transform="matrix(1,0,0,1,0,910.796)">
            <circle cx="108.627" cy="1432.14" r="34.555" style="stroke:rgb(130,239,244);stroke-width:3px;"/>
        </g>
    </g>
</svg>
