<?xml version="1.0" encoding="UTF-8" standalone="no"?>
<!DOCTYPE svg PUBLIC "-//W3C//DTD SVG 1.1//EN" "http://www.w3.org/Graphics/SVG/1.1/DTD/svg11.dtd">
<svg width="100%" height="100%" viewBox="0 0 640 2000" version="1.1" xmlns="http://www.w3.org/2000/svg" xmlns:xlink="http://www.w3.org/1999/xlink" xml:space="preserve" xmlns:serif="http://www.serif.com/" style="fill-rule:evenodd;clip-rule:evenodd;stroke-linecap:round;stroke-linejoin:round;stroke-miterlimit:1.5;">
    <g transform="matrix(0.479358,0,0,0.502868,-0.651606,743.074)">
        <g id="Capa2">
            <g>
                <g id="Capa4">
                    <g transform="matrix(1,0,0,1.05649,0,-140.806)">
                        <path d="M112.568,137.134L112.568,706.538" style="fill:none;stroke:rgb(130,239,244);stroke-width:5.93px;"/>
                    </g>
                    <g transform="matrix(1,0,0,0.856794,114.505,0.287178)">
                        <path d="M112.568,137.134L112.568,706.538" style="fill:none;stroke:rgb(130,239,244);stroke-width:6.58px;"/>
                    </g>
                    <g transform="matrix(1,0,0,1.45307,226.606,-187.799)">
                        <path d="M112.568,137.134L113.523,714.508" style="fill:none;stroke:rgb(130,239,244);stroke-width:4.85px;"/>
                    </g>
                    <g transform="matrix(1,0,0,1.05649,0,-140.806)">
                        <path d="M451.677,1403.19L340.641,1512.82" style="fill:none;stroke:rgb(130,239,244);stroke-width:5.93px;"/>
                    </g>
                    <g transform="matrix(1,0,0,0.853887,340.686,-4.70015)">
                        <path d="M112.568,137.134L112.568,706.538" style="fill:none;stroke:rgb(130,239,244);stroke-width:6.59px;"/>
                    </g>
                    <g transform="matrix(1,0,0,0.632416,456.319,-86.3954)">
                        <path d="M112.568,137.134L112.568,706.538" style="fill:none;stroke:rgb(130,239,244);stroke-width:7.38px;"/>
                    </g>
                    <g transform="matrix(1,0,0,0.631357,569.271,36.8969)">
                        <path d="M112.568,137.134L112.568,706.538" style="fill:none;stroke:rgb(130,239,244);stroke-width:7.38px;"/>
                    </g>
                    <g transform="matrix(1,0,0,1.90848,684.359,-138.241)">
                        <path d="M112.568,137.134L112.568,706.538" style="fill:none;stroke:rgb(130,239,244);stroke-width:3.95px;"/>
                    </g>
                    <g transform="matrix(1,0,0,1.04698,799.408,-137.678)">
                        <path d="M112.568,137.134L112.568,706.538" style="fill:none;stroke:rgb(130,239,244);stroke-width:5.96px;"/>
                    </g>
                    <g transform="matrix(1,0,0,0.647565,912.665,-82.9046)">
                        <path d="M112.568,137.134L112.568,706.538" style="fill:none;stroke:rgb(130,239,244);stroke-width:7.32px;"/>
                    </g>
                    <g transform="matrix(1,0,0,0.217333,1031.38,-23.9049)">
                        <path d="M112.568,137.134L112.568,706.538" style="fill:none;stroke:rgb(130,239,244);stroke-width:8.63px;"/>
                    </g>
                    <g transform="matrix(1,0,0,0.385007,1031.38,211.415)">
                        <path d="M112.568,78.974L112.568,706.538" style="fill:none;stroke:rgb(130,239,244);stroke-width:8.21px;"/>
                    </g>
                    <g transform="matrix(1,0,0,0.859824,1139.46,3.4062)">
                        <path d="M112.568,137.134L112.568,706.538" style="fill:none;stroke:rgb(130,239,244);stroke-width:6.57px;"/>
                    </g>
                    <g transform="matrix(1,0,0,1.48997,1139.46,887.846)">
                        <path d="M112.568,137.134L112.568,706.538" style="fill:none;stroke:rgb(130,239,244);stroke-width:4.77px;"/>
                    </g>
                    <g transform="matrix(1,0,0,0.431513,1139.46,1996.62)">
                        <path d="M112.568,137.134L112.568,706.538" style="fill:none;stroke:rgb(130,239,244);stroke-width:8.06px;"/>
                    </g>
                    <g transform="matrix(1,0,0,0.441711,1031.38,545.253)">
                        <path d="M112.568,137.134L112.568,706.538" style="fill:none;stroke:rgb(130,239,244);stroke-width:8.03px;"/>
                    </g>
                    <g transform="matrix(1,0,0,1.70667,1031.38,740.313)">
                        <path d="M112.568,137.134L112.568,706.538" style="fill:none;stroke:rgb(130,239,244);stroke-width:4.32px;"/>
                    </g>
                    <g transform="matrix(1,0,0,0.456786,1031.38,2115.36)">
                        <path d="M112.568,137.134L112.568,706.538" style="fill:none;stroke:rgb(130,239,244);stroke-width:7.98px;"/>
                    </g>
                    <g transform="matrix(1,0,0,0.453165,912.665,535.744)">
                        <path d="M112.568,162.042L112.568,706.538" style="fill:none;stroke:rgb(130,239,244);stroke-width:7.99px;"/>
                    </g>
                    <g transform="matrix(1,0,0,1.05649,0,-140.806)">
                        <path d="M1143.83,592.853L1025.23,709.88" style="fill:none;stroke:rgb(130,239,244);stroke-width:5.93px;"/>
                    </g>
                    <g transform="matrix(1,0,0,0.613646,912.665,1025.71)">
                        <path d="M112.568,109.421L112.568,706.538" style="fill:none;stroke:rgb(130,239,244);stroke-width:7.44px;"/>
                    </g>
                    <g transform="matrix(1,0,0,0.821889,912.665,1472.63)">
                        <path d="M112.568,137.134L112.568,713.478" style="fill:none;stroke:rgb(130,239,244);stroke-width:6.7px;"/>
                    </g>
                    <g transform="matrix(1,0,0,1.05649,0,-140.806)">
                        <path d="M1025.23,2082.21L911.164,2200.2" style="fill:none;stroke:rgb(130,239,244);stroke-width:5.93px;"/>
                    </g>
                    <g transform="matrix(1,0,0,0.114492,912.665,2393.18)">
                        <path d="M112.568,-822.751L112.568,706.538" style="fill:none;stroke:rgb(130,239,244);stroke-width:8.79px;"/>
                    </g>
                    <g transform="matrix(1,0,0,0.431045,799.408,663.551)">
                        <path d="M112.568,137.134L112.568,706.538" style="fill:none;stroke:rgb(130,239,244);stroke-width:8.06px;"/>
                    </g>
                    <g transform="matrix(1,0,0,1.48852,799.408,898.691)">
                        <path d="M112.568,132.237L112.568,706.538" style="fill:none;stroke:rgb(130,239,244);stroke-width:4.77px;"/>
                    </g>
                    <g transform="matrix(1,0,0,1.05649,0,-140.806)">
                        <path d="M1258.36,938.642L1144.65,1053.57" style="fill:none;stroke:rgb(130,239,244);stroke-width:5.93px;"/>
                    </g>
                    <g transform="matrix(1,0,0,0.509647,799.408,2115.16)">
                        <path d="M112.568,137.134L112.568,706.538" style="fill:none;stroke:rgb(130,239,244);stroke-width:7.81px;"/>
                    </g>
                    <g transform="matrix(1,0,0,0.641087,684.359,1358.87)">
                        <path d="M112.568,137.134L112.568,706.538" style="fill:none;stroke:rgb(130,239,244);stroke-width:7.34px;"/>
                    </g>
                    <g transform="matrix(1,0,0,0.413925,684.359,1886.41)">
                        <path d="M112.568,137.134L112.568,724.248" style="fill:none;stroke:rgb(130,239,244);stroke-width:8.12px;"/>
                    </g>
                    <g transform="matrix(1,0,0,0.311823,684.359,2257.43)">
                        <path d="M112.568,137.134L112.568,706.538" style="fill:none;stroke:rgb(130,239,244);stroke-width:8.41px;"/>
                    </g>
                    <g transform="matrix(1,0,0,0.833959,569.271,503.721)">
                        <path d="M112.568,137.134L112.568,706.538" style="fill:none;stroke:rgb(130,239,244);stroke-width:6.66px;"/>
                    </g>
                    <g transform="matrix(1,0,0,0.44075,569.271,1275.39)">
                        <path d="M112.568,137.134L112.568,706.538" style="fill:none;stroke:rgb(130,239,244);stroke-width:8.03px;"/>
                    </g>
                    <g transform="matrix(1,0,0,0.209032,569.271,1668.34)">
                        <path d="M112.568,137.134L112.568,706.538" style="fill:none;stroke:rgb(130,239,244);stroke-width:8.65px;"/>
                    </g>
                    <g transform="matrix(1,0,0,0.449273,569.271,1871.33)">
                        <path d="M112.568,137.134L112.568,706.538" style="fill:none;stroke:rgb(130,239,244);stroke-width:8.01px;"/>
                    </g>
                    <g transform="matrix(1,0,0,0.318129,569.271,2251.59)">
                        <path d="M112.568,180.502L112.568,706.538" style="fill:none;stroke:rgb(130,239,244);stroke-width:8.4px;"/>
                    </g>
                    <g transform="matrix(1,0,0,1.05649,0,-140.806)">
                        <path d="M681.839,2318.83L796.441,2204.11" style="fill:none;stroke:rgb(130,239,244);stroke-width:5.93px;"/>
                    </g>
                    <g transform="matrix(1,0,0,1.26584,456.319,547.907)">
                        <path d="M112.568,137.134L112.568,717.201L-1.802,814.709" style="fill:none;stroke:rgb(130,239,244);stroke-width:5.32px;"/>
                    </g>
                    <g transform="matrix(1,0,0,1.05649,0,-140.806)">
                        <path d="M339.769,2089.45L569.522,2316.47" style="fill:none;stroke:rgb(130,239,244);stroke-width:5.93px;"/>
                    </g>
                    <g transform="matrix(1,0,0,0.82423,456.319,1487.76)">
                        <path d="M112.568,137.134L112.568,706.538" style="fill:none;stroke:rgb(130,239,244);stroke-width:6.7px;"/>
                    </g>
                    <g transform="matrix(1,0,0,0.299975,456.319,2264.92)">
                        <path d="M112.568,137.134L112.568,706.538" style="fill:none;stroke:rgb(130,239,244);stroke-width:8.44px;"/>
                    </g>
                    <g transform="matrix(1,0,0,0.644979,340.686,644.803)">
                        <path d="M112.568,137.134L112.568,706.538" style="fill:none;stroke:rgb(130,239,244);stroke-width:7.33px;"/>
                    </g>
                    <g transform="matrix(1,0,0,0.214032,340.686,1189.8)">
                        <path d="M112.568,137.134L112.568,706.538" style="fill:none;stroke:rgb(130,239,244);stroke-width:8.64px;"/>
                    </g>
                    <g transform="matrix(1,0,0,0.67636,340.686,1471.45)">
                        <path d="M112.568,159.373L112.568,706.538" style="fill:none;stroke:rgb(130,239,244);stroke-width:7.22px;"/>
                    </g>
                    <g transform="matrix(1,0,0,0.292438,340.686,2271.07)">
                        <path d="M112.568,137.134L112.568,706.538" style="fill:none;stroke:rgb(130,239,244);stroke-width:8.46px;"/>
                    </g>
                    <g transform="matrix(1,0,0,0.436292,226.606,1030.6)">
                        <path d="M112.568,137.134L112.568,706.538" style="fill:none;stroke:rgb(130,239,244);stroke-width:8.05px;"/>
                    </g>
                    <g transform="matrix(1,0,0,1.07221,226.606,1309.44)">
                        <path d="M112.568,137.134L112.568,706.538" style="fill:none;stroke:rgb(130,239,244);stroke-width:5.88px;"/>
                    </g>
                    <g transform="matrix(1,0,0,0.160235,226.606,2364.28)">
                        <path d="M112.568,366.876L112.568,706.538" style="fill:none;stroke:rgb(130,239,244);stroke-width:8.73px;"/>
                    </g>
                    <g transform="matrix(1,0,0,1.31432,114.505,771.55)">
                        <path d="M224.975,60.555L112.568,152.867L112.568,706.538" style="fill:none;stroke:rgb(130,239,244);stroke-width:5.2px;"/>
                    </g>
                    <g transform="matrix(1,0,0,0.656162,114.505,1848.85)">
                        <path d="M112.568,137.134L112.568,706.538" style="fill:none;stroke:rgb(130,239,244);stroke-width:7.29px;"/>
                    </g>
                    <g transform="matrix(1,0,0,0.647048,0,893.043)">
                        <path d="M110.62,119.781L112.568,706.538" style="fill:none;stroke:rgb(130,239,244);stroke-width:7.32px;"/>
                    </g>
                    <g transform="matrix(1,0,0,0.626011,0,1375.16)">
                        <path d="M112.568,137.134L112.568,706.538" style="fill:none;stroke:rgb(130,239,244);stroke-width:7.4px;"/>
                    </g>
                    <g transform="matrix(1,0,0,0.702249,0,1829.2)">
                        <path d="M112.568,137.134L112.568,706.538" style="fill:none;stroke:rgb(130,239,244);stroke-width:7.13px;"/>
                    </g>
                    <g transform="matrix(1,0,0,1.05649,0,-140.806)">
                        <path d="M112.711,1855.35L226.624,1966.06" style="fill:none;stroke:rgb(130,239,244);stroke-width:5.93px;"/>
                    </g>
                    <g transform="matrix(1,0,0,1.05649,0,-140.806)">
                        <path d="M340.39,2316.1L176.861,2480.17" style="fill:none;stroke:rgb(130,239,244);stroke-width:5.93px;"/>
                    </g>
                    <g transform="matrix(1,0,0,1.05649,0,-140.806)">
                        <path d="M797.081,1970.1L683.054,1853.1" style="fill:none;stroke:rgb(130,239,244);stroke-width:5.93px;"/>
                    </g>
                    <g transform="matrix(1,0,0,1.05649,0,-140.806)">
                        <path d="M682.138,1396.51L796.641,1280.03" style="fill:none;stroke:rgb(130,239,244);stroke-width:5.93px;"/>
                    </g>
                    <g transform="matrix(1,0,0,1.05649,0,-140.806)">
                        <path d="M453.682,824.968L682.453,592.998" style="fill:none;stroke:rgb(130,239,244);stroke-width:5.93px;"/>
                    </g>
                    <g transform="matrix(1,0,0,1.05649,0,-140.806)">
                        <path d="M912.106,1052.53L1026.56,1167.34" style="fill:none;stroke:rgb(130,239,244);stroke-width:5.93px;"/>
                    </g>
                    <g transform="matrix(1,0,0,1.05649,0,-140.806)">
                        <path d="M1252.34,822.81L1366.57,939.301" style="fill:none;stroke:rgb(130,239,244);stroke-width:5.93px;"/>
                    </g>
                    <g transform="matrix(1,0,0,1.05649,0,-140.806)">
                        <path d="M1145.76,1975.72L1251.34,2080.03" style="fill:none;stroke:rgb(130,239,244);stroke-width:5.93px;"/>
                    </g>
                    <g transform="matrix(1,0,0,1.05649,0,-140.806)">
                        <path d="M1145.82,2442.46L1187.32,2483.96" style="fill:none;stroke:rgb(130,239,244);stroke-width:5.93px;"/>
                    </g>
                    <g transform="matrix(1,0,0,1.05649,0,-140.806)">
                        <path d="M1251.99,2314.26L1418.65,2480.11" style="fill:none;stroke:rgb(130,239,244);stroke-width:5.93px;"/>
                    </g>
                    <g id="Capa6">
                        <g transform="matrix(1,0,0,1.05649,0,-140.806)">
                            <path d="M226.921,710.993L-1.252,939.362" style="fill:none;stroke:rgb(130,239,244);stroke-width:5.93px;"/>
                        </g>
                        <g transform="matrix(1,0,0,1.05649,0,-28.0378)">
                            <path d="M226.921,710.993L-1.252,939.362" style="fill:none;stroke:rgb(130,239,244);stroke-width:5.93px;"/>
                        </g>
                        <g transform="matrix(1,0,0,1.05649,0,98.6912)">
                            <path d="M226.921,710.993L112.56,824.206" style="fill:none;stroke:rgb(130,239,244);stroke-width:5.93px;"/>
                        </g>
                    </g>
                </g>
                <g id="Capa5">
                    <g transform="matrix(1,0,0,1.05649,0,-140.806)">
                        <circle cx="108.627" cy="1432.14" r="34.555" style="stroke:rgb(130,239,244);stroke-width:5.93px;"/>
                    </g>
                    <g transform="matrix(1,0,0,1.05649,230.851,-460.722)">
                        <circle cx="108.627" cy="1432.14" r="34.555" style="stroke:rgb(130,239,244);stroke-width:5.93px;"/>
                    </g>
                    <g transform="matrix(1,0,0,1.05649,343.907,-387.174)">
                        <circle cx="108.627" cy="1432.14" r="34.555" style="stroke:rgb(130,239,244);stroke-width:5.93px;"/>
                    </g>
                    <g transform="matrix(1,0,0,1.05649,575.209,-387.174)">
                        <circle cx="108.627" cy="1432.14" r="34.555" style="stroke:rgb(130,239,244);stroke-width:5.93px;"/>
                    </g>
                    <g transform="matrix(1,0,0,1.05649,1147.17,-460.722)">
                        <circle cx="108.627" cy="1432.14" r="34.555" style="stroke:rgb(130,239,244);stroke-width:5.93px;"/>
                    </g>
                    <g transform="matrix(1,0,0,1.05649,919.341,-625.241)">
                        <circle cx="108.627" cy="1432.14" r="34.555" style="stroke:rgb(130,239,244);stroke-width:5.93px;"/>
                    </g>
                    <g transform="matrix(1,0,0,1.05649,1261.66,-509.208)">
                        <circle cx="108.627" cy="1432.14" r="34.555" style="stroke:rgb(130,239,244);stroke-width:5.93px;"/>
                    </g>
                    <g transform="matrix(1,0,0,1.05649,805.158,-823.416)">
                        <circle cx="108.627" cy="1432.14" r="34.555" style="stroke:rgb(130,239,244);stroke-width:5.93px;"/>
                    </g>
                    <g transform="matrix(1,0,0,1.05649,117.304,-1434.71)">
                        <circle cx="108.627" cy="1432.14" r="34.555" style="stroke:rgb(130,239,244);stroke-width:5.93px;"/>
                    </g>
                    <g transform="matrix(1,0,0,1.05649,344.466,-1434.71)">
                        <circle cx="108.627" cy="1432.14" r="34.555" style="stroke:rgb(130,239,244);stroke-width:5.93px;"/>
                    </g>
                    <g transform="matrix(1,0,0,1.05649,459.092,-1109.89)">
                        <circle cx="108.627" cy="1432.14" r="34.555" style="stroke:rgb(130,239,244);stroke-width:5.93px;"/>
                    </g>
                    <g transform="matrix(1,0,0,1.05649,918.037,-1109.89)">
                        <circle cx="108.627" cy="1432.14" r="34.555" style="stroke:rgb(130,239,244);stroke-width:5.93px;"/>
                    </g>
                    <g transform="matrix(1,0,0,1.05649,1260.54,-1040.84)">
                        <circle cx="108.627" cy="1432.14" r="34.555" style="stroke:rgb(130,239,244);stroke-width:5.93px;"/>
                    </g>
                    <g transform="matrix(1,0,0,1.05649,1029.6,-1360.4)">
                        <circle cx="108.627" cy="1432.14" r="34.555" style="stroke:rgb(130,239,244);stroke-width:5.93px;"/>
                    </g>
                    <g transform="matrix(1,0,0,1.05649,575.209,-1434.71)">
                        <circle cx="108.627" cy="1432.14" r="34.555" style="stroke:rgb(130,239,244);stroke-width:5.93px;"/>
                    </g>
                    <g transform="matrix(1,0,0,1.05649,688.265,-1434.71)">
                        <circle cx="108.627" cy="1432.14" r="34.555" style="stroke:rgb(130,239,244);stroke-width:5.93px;"/>
                    </g>
                    <g transform="matrix(1,0,0,1.05649,1261.01,-1434.71)">
                        <circle cx="108.627" cy="1432.14" r="34.555" style="stroke:rgb(130,239,244);stroke-width:5.93px;"/>
                    </g>
                    <g transform="matrix(1,0,0,1.05649,117.304,230.704)">
                        <circle cx="108.627" cy="1432.14" r="34.555" style="stroke:rgb(130,239,244);stroke-width:5.93px;"/>
                    </g>
                    <g transform="matrix(1,0,0,1.05649,347.694,466.884)">
                        <circle cx="108.627" cy="1432.14" r="34.555" style="stroke:rgb(130,239,244);stroke-width:5.93px;"/>
                    </g>
                    <g transform="matrix(1,0,0,1.05649,461.446,586.337)">
                        <circle cx="108.627" cy="1432.14" r="34.555" style="stroke:rgb(130,239,244);stroke-width:5.93px;"/>
                    </g>
                    <g transform="matrix(1,0,0,1.05649,575.307,392.445)">
                        <circle cx="108.627" cy="1432.14" r="34.555" style="stroke:rgb(130,239,244);stroke-width:5.93px;"/>
                    </g>
                    <g transform="matrix(1,0,0,1.05649,803.038,470.111)">
                        <circle cx="108.627" cy="1432.14" r="34.555" style="stroke:rgb(130,239,244);stroke-width:5.93px;"/>
                    </g>
                    <g transform="matrix(1,0,0,1.05649,1034.52,636.35)">
                        <circle cx="108.627" cy="1432.14" r="34.555" style="stroke:rgb(130,239,244);stroke-width:5.93px;"/>
                    </g>
                    <g transform="matrix(1,0,0,1.05649,917.606,754.249)">
                        <circle cx="108.627" cy="1432.14" r="34.555" style="stroke:rgb(130,239,244);stroke-width:5.93px;"/>
                    </g>
                    <g transform="matrix(1,0,0,1.05649,574.267,97.3002)">
                        <circle cx="108.627" cy="1432.14" r="34.555" style="stroke:rgb(130,239,244);stroke-width:5.93px;"/>
                    </g>
                    <g transform="matrix(1,0,0,1.05649,916.8,-20.7121)">
                        <circle cx="108.627" cy="1432.14" r="34.555" style="stroke:rgb(130,239,244);stroke-width:5.93px;"/>
                    </g>
                    <g transform="matrix(1,0,0,1.05649,1261.44,28.4994)">
                        <circle cx="108.627" cy="1432.14" r="34.555" style="stroke:rgb(130,239,244);stroke-width:5.93px;"/>
                    </g>
                    <g transform="matrix(1,0,0,1.05649,117.304,826.167)">
                        <circle cx="108.627" cy="1432.14" r="34.555" style="stroke:rgb(130,239,244);stroke-width:5.93px;"/>
                    </g>
                    <g transform="matrix(1,0,0,1.05649,0,821.441)">
                        <circle cx="108.627" cy="1432.14" r="34.555" style="stroke:rgb(130,239,244);stroke-width:5.93px;"/>
                    </g>
                </g>
            </g>
        </g>
    </g>
    <g transform="matrix(0.479358,0,0,0.502868,-0.651606,-494.321)">
        <g id="Capa21" serif:id="Capa2">
            <g>
                <g id="Capa41" serif:id="Capa4">
                    <g transform="matrix(1,0,0,1.05649,0,-140.806)">
                        <path d="M451.677,1403.19L340.641,1512.82" style="fill:none;stroke:rgb(130,239,244);stroke-width:5.93px;"/>
                    </g>
                    <g transform="matrix(1,0,0,1.90848,684.359,-138.241)">
                        <path d="M112.568,137.134L112.568,706.538" style="fill:none;stroke:rgb(130,239,244);stroke-width:3.95px;"/>
                    </g>
                    <g transform="matrix(1,0,0,1.48997,1139.46,887.846)">
                        <path d="M112.568,137.134L112.568,706.538" style="fill:none;stroke:rgb(130,239,244);stroke-width:4.77px;"/>
                    </g>
                    <g transform="matrix(1,0,0,0.431513,1139.46,1996.62)">
                        <path d="M112.568,137.134L112.568,706.538" style="fill:none;stroke:rgb(130,239,244);stroke-width:8.06px;"/>
                    </g>
                    <g transform="matrix(1,0,0,1.70667,1031.38,740.313)">
                        <path d="M112.568,137.134L112.568,706.538" style="fill:none;stroke:rgb(130,239,244);stroke-width:4.32px;"/>
                    </g>
                    <g transform="matrix(1,0,0,0.456786,1031.38,2115.36)">
                        <path d="M112.568,137.134L112.568,706.538" style="fill:none;stroke:rgb(130,239,244);stroke-width:7.98px;"/>
                    </g>
                    <g transform="matrix(1,0,0,0.613646,912.665,1025.71)">
                        <path d="M112.568,109.421L112.568,706.538" style="fill:none;stroke:rgb(130,239,244);stroke-width:7.44px;"/>
                    </g>
                    <g transform="matrix(1,0,0,0.821889,912.665,1472.63)">
                        <path d="M112.568,137.134L112.568,713.478" style="fill:none;stroke:rgb(130,239,244);stroke-width:6.7px;"/>
                    </g>
                    <g transform="matrix(1,0,0,1.05649,0,-140.806)">
                        <path d="M1025.23,2082.21L911.164,2200.2" style="fill:none;stroke:rgb(130,239,244);stroke-width:5.93px;"/>
                    </g>
                    <g transform="matrix(1,0,0,0.114492,912.665,2393.18)">
                        <path d="M112.568,-822.751L112.568,706.538" style="fill:none;stroke:rgb(130,239,244);stroke-width:8.79px;"/>
                    </g>
                    <g transform="matrix(1,0,0,1.48852,799.408,898.691)">
                        <path d="M112.568,132.237L112.568,706.538" style="fill:none;stroke:rgb(130,239,244);stroke-width:4.77px;"/>
                    </g>
                    <g transform="matrix(1,0,0,0.509647,799.408,2115.16)">
                        <path d="M112.568,137.134L112.568,706.538" style="fill:none;stroke:rgb(130,239,244);stroke-width:7.81px;"/>
                    </g>
                    <g transform="matrix(1,0,0,0.641087,684.359,1358.87)">
                        <path d="M112.568,137.134L112.568,706.538" style="fill:none;stroke:rgb(130,239,244);stroke-width:7.34px;"/>
                    </g>
                    <g transform="matrix(1,0,0,0.413925,684.359,1886.41)">
                        <path d="M112.568,137.134L112.568,724.248" style="fill:none;stroke:rgb(130,239,244);stroke-width:8.12px;"/>
                    </g>
                    <g transform="matrix(1,0,0,0.311823,684.359,2257.43)">
                        <path d="M112.568,137.134L112.568,706.538" style="fill:none;stroke:rgb(130,239,244);stroke-width:8.41px;"/>
                    </g>
                    <g transform="matrix(1,0,0,0.833959,569.271,503.721)">
                        <path d="M112.568,137.134L112.568,706.538" style="fill:none;stroke:rgb(130,239,244);stroke-width:6.66px;"/>
                    </g>
                    <g transform="matrix(1,0,0,0.44075,569.271,1275.39)">
                        <path d="M112.568,137.134L112.568,706.538" style="fill:none;stroke:rgb(130,239,244);stroke-width:8.03px;"/>
                    </g>
                    <g transform="matrix(1,0,0,0.209032,569.271,1668.34)">
                        <path d="M112.568,137.134L112.568,706.538" style="fill:none;stroke:rgb(130,239,244);stroke-width:8.65px;"/>
                    </g>
                    <g transform="matrix(1,0,0,0.449273,569.271,1871.33)">
                        <path d="M112.568,137.134L112.568,706.538" style="fill:none;stroke:rgb(130,239,244);stroke-width:8.01px;"/>
                    </g>
                    <g transform="matrix(1,0,0,0.318129,569.271,2251.59)">
                        <path d="M112.568,180.502L112.568,706.538" style="fill:none;stroke:rgb(130,239,244);stroke-width:8.4px;"/>
                    </g>
                    <g transform="matrix(1,0,0,1.05649,0,-140.806)">
                        <path d="M681.839,2318.83L796.441,2204.11" style="fill:none;stroke:rgb(130,239,244);stroke-width:5.93px;"/>
                    </g>
                    <g transform="matrix(1,0,0,1.26584,456.319,547.907)">
                        <path d="M112.568,137.134L112.568,717.201L-1.802,814.709" style="fill:none;stroke:rgb(130,239,244);stroke-width:5.32px;"/>
                    </g>
                    <g transform="matrix(1,0,0,1.05649,0,-140.806)">
                        <path d="M339.769,2089.45L569.522,2316.47" style="fill:none;stroke:rgb(130,239,244);stroke-width:5.93px;"/>
                    </g>
                    <g transform="matrix(1,0,0,0.82423,456.319,1487.76)">
                        <path d="M112.568,137.134L112.568,706.538" style="fill:none;stroke:rgb(130,239,244);stroke-width:6.7px;"/>
                    </g>
                    <g transform="matrix(1,0,0,0.299975,456.319,2264.92)">
                        <path d="M112.568,137.134L112.568,706.538" style="fill:none;stroke:rgb(130,239,244);stroke-width:8.44px;"/>
                    </g>
                    <g transform="matrix(1,0,0,0.644979,340.686,644.803)">
                        <path d="M112.568,137.134L112.568,706.538" style="fill:none;stroke:rgb(130,239,244);stroke-width:7.33px;"/>
                    </g>
                    <g transform="matrix(1,0,0,0.214032,340.686,1189.8)">
                        <path d="M112.568,137.134L112.568,706.538" style="fill:none;stroke:rgb(130,239,244);stroke-width:8.64px;"/>
                    </g>
                    <g transform="matrix(1,0,0,0.67636,340.686,1471.45)">
                        <path d="M112.568,159.373L112.568,706.538" style="fill:none;stroke:rgb(130,239,244);stroke-width:7.22px;"/>
                    </g>
                    <g transform="matrix(1,0,0,0.292438,340.686,2271.07)">
                        <path d="M112.568,137.134L112.568,706.538" style="fill:none;stroke:rgb(130,239,244);stroke-width:8.46px;"/>
                    </g>
                    <g transform="matrix(1,0,0,0.436292,226.606,1030.6)">
                        <path d="M112.568,137.134L112.568,706.538" style="fill:none;stroke:rgb(130,239,244);stroke-width:8.05px;"/>
                    </g>
                    <g transform="matrix(1,0,0,1.07221,226.606,1309.44)">
                        <path d="M112.568,137.134L112.568,706.538" style="fill:none;stroke:rgb(130,239,244);stroke-width:5.88px;"/>
                    </g>
                    <g transform="matrix(1,0,0,0.160235,226.606,2364.28)">
                        <path d="M112.568,366.876L112.568,706.538" style="fill:none;stroke:rgb(130,239,244);stroke-width:8.73px;"/>
                    </g>
                    <g transform="matrix(1,0,0,1.31432,114.505,771.55)">
                        <path d="M224.975,60.555L112.568,152.867L112.568,706.538" style="fill:none;stroke:rgb(130,239,244);stroke-width:5.2px;"/>
                    </g>
                    <g transform="matrix(1,0,0,0.656162,114.505,1848.85)">
                        <path d="M112.568,137.134L112.568,706.538" style="fill:none;stroke:rgb(130,239,244);stroke-width:7.29px;"/>
                    </g>
                    <g transform="matrix(1,0,0,0.647048,0,893.043)">
                        <path d="M110.62,119.781L112.568,706.538" style="fill:none;stroke:rgb(130,239,244);stroke-width:7.32px;"/>
                    </g>
                    <g transform="matrix(1,0,0,0.626011,0,1375.16)">
                        <path d="M112.568,137.134L112.568,706.538" style="fill:none;stroke:rgb(130,239,244);stroke-width:7.4px;"/>
                    </g>
                    <g transform="matrix(1,0,0,0.702249,0,1829.2)">
                        <path d="M112.568,137.134L112.568,706.538" style="fill:none;stroke:rgb(130,239,244);stroke-width:7.13px;"/>
                    </g>
                    <g transform="matrix(1,0,0,1.05649,0,-140.806)">
                        <path d="M112.711,1855.35L226.624,1966.06" style="fill:none;stroke:rgb(130,239,244);stroke-width:5.93px;"/>
                    </g>
                    <g transform="matrix(1,0,0,1.05649,0,-140.806)">
                        <path d="M340.39,2316.1L176.861,2480.17" style="fill:none;stroke:rgb(130,239,244);stroke-width:5.93px;"/>
                    </g>
                    <g transform="matrix(1,0,0,1.05649,0,-140.806)">
                        <path d="M797.081,1970.1L683.054,1853.1" style="fill:none;stroke:rgb(130,239,244);stroke-width:5.93px;"/>
                    </g>
                    <g transform="matrix(1,0,0,1.05649,0,-140.806)">
                        <path d="M682.138,1396.51L796.641,1280.03" style="fill:none;stroke:rgb(130,239,244);stroke-width:5.93px;"/>
                    </g>
                    <g transform="matrix(1,0,0,1.05649,0,-140.806)">
                        <path d="M912.106,1052.53L1026.56,1167.34" style="fill:none;stroke:rgb(130,239,244);stroke-width:5.93px;"/>
                    </g>
                    <g transform="matrix(1,0,0,1.05649,0,-140.806)">
                        <path d="M1145.76,1975.72L1251.34,2080.03" style="fill:none;stroke:rgb(130,239,244);stroke-width:5.93px;"/>
                    </g>
                    <g transform="matrix(1,0,0,1.05649,0,-140.806)">
                        <path d="M1145.82,2442.46L1187.32,2483.96" style="fill:none;stroke:rgb(130,239,244);stroke-width:5.93px;"/>
                    </g>
                    <g transform="matrix(1,0,0,1.05649,0,-140.806)">
                        <path d="M1251.99,2314.26L1418.65,2480.11" style="fill:none;stroke:rgb(130,239,244);stroke-width:5.93px;"/>
                    </g>
                    <g id="Capa61" serif:id="Capa6">
                    </g>
                </g>
                <g id="Capa51" serif:id="Capa5">
                    <g transform="matrix(1,0,0,1.05649,0,-140.806)">
                        <circle cx="108.627" cy="1432.14" r="34.555" style="stroke:rgb(130,239,244);stroke-width:5.93px;"/>
                    </g>
                    <g transform="matrix(1,0,0,1.05649,230.851,-460.722)">
                        <circle cx="108.627" cy="1432.14" r="34.555" style="stroke:rgb(130,239,244);stroke-width:5.93px;"/>
                    </g>
                    <g transform="matrix(1,0,0,1.05649,343.907,-387.174)">
                        <circle cx="108.627" cy="1432.14" r="34.555" style="stroke:rgb(130,239,244);stroke-width:5.93px;"/>
                    </g>
                    <g transform="matrix(1,0,0,1.05649,575.209,-387.174)">
                        <circle cx="108.627" cy="1432.14" r="34.555" style="stroke:rgb(130,239,244);stroke-width:5.93px;"/>
                    </g>
                    <g transform="matrix(1,0,0,1.05649,1147.17,-460.722)">
                        <circle cx="108.627" cy="1432.14" r="34.555" style="stroke:rgb(130,239,244);stroke-width:5.93px;"/>
                    </g>
                    <g transform="matrix(1,0,0,1.05649,1261.66,-509.208)">
                        <circle cx="108.627" cy="1432.14" r="34.555" style="stroke:rgb(130,239,244);stroke-width:5.93px;"/>
                    </g>
                    <g transform="matrix(1,0,0,1.05649,117.304,230.704)">
                        <circle cx="108.627" cy="1432.14" r="34.555" style="stroke:rgb(130,239,244);stroke-width:5.93px;"/>
                    </g>
                    <g transform="matrix(1,0,0,1.05649,347.694,466.884)">
                        <circle cx="108.627" cy="1432.14" r="34.555" style="stroke:rgb(130,239,244);stroke-width:5.93px;"/>
                    </g>
                    <g transform="matrix(1,0,0,1.05649,461.446,586.337)">
                        <circle cx="108.627" cy="1432.14" r="34.555" style="stroke:rgb(130,239,244);stroke-width:5.93px;"/>
                    </g>
                    <g transform="matrix(1,0,0,1.05649,575.307,392.445)">
                        <circle cx="108.627" cy="1432.14" r="34.555" style="stroke:rgb(130,239,244);stroke-width:5.93px;"/>
                    </g>
                    <g transform="matrix(1,0,0,1.05649,803.038,470.111)">
                        <circle cx="108.627" cy="1432.14" r="34.555" style="stroke:rgb(130,239,244);stroke-width:5.93px;"/>
                    </g>
                    <g transform="matrix(1,0,0,1.05649,1034.52,636.35)">
                        <circle cx="108.627" cy="1432.14" r="34.555" style="stroke:rgb(130,239,244);stroke-width:5.93px;"/>
                    </g>
                    <g transform="matrix(1,0,0,1.05649,917.606,754.249)">
                        <circle cx="108.627" cy="1432.14" r="34.555" style="stroke:rgb(130,239,244);stroke-width:5.93px;"/>
                    </g>
                    <g transform="matrix(1,0,0,1.05649,574.267,97.3002)">
                        <circle cx="108.627" cy="1432.14" r="34.555" style="stroke:rgb(130,239,244);stroke-width:5.93px;"/>
                    </g>
                    <g transform="matrix(1,0,0,1.05649,916.8,-20.7121)">
                        <circle cx="108.627" cy="1432.14" r="34.555" style="stroke:rgb(130,239,244);stroke-width:5.93px;"/>
                    </g>
                    <g transform="matrix(1,0,0,1.05649,1261.44,28.4994)">
                        <circle cx="108.627" cy="1432.14" r="34.555" style="stroke:rgb(130,239,244);stroke-width:5.93px;"/>
                    </g>
                    <g transform="matrix(1,0,0,1.05649,117.304,826.167)">
                        <circle cx="108.627" cy="1432.14" r="34.555" style="stroke:rgb(130,239,244);stroke-width:5.93px;"/>
                    </g>
                    <g transform="matrix(1,0,0,1.05649,0,821.441)">
                        <circle cx="108.627" cy="1432.14" r="34.555" style="stroke:rgb(130,239,244);stroke-width:5.93px;"/>
                    </g>
                </g>
            </g>
        </g>
    </g>
</svg>
