<?xml version="1.0" encoding="UTF-8"?>
<svg width="98px" height="81px" viewBox="0 0 98 81" version="1.1" xmlns="http://www.w3.org/2000/svg" xmlns:xlink="http://www.w3.org/1999/xlink">
    <!-- Generator: Sketch 61.2 (89653) - https://sketch.com -->
    <title>Icon/Services/ico-TI</title>
    <desc>Created with Sketch.</desc>
    <g id="Icon/Services/ico-TI" stroke="none" stroke-width="1" fill="none" fill-rule="evenodd">
        <g id="Group" transform="translate(2.000000, 0.000000)" fill="#353B50" stroke="#FFFFFF">
            <path d="M90,51 L90,4 L4,4 L4,51 L12,51 L12,63 L3,63 C1.34314575,63 2.02906125e-16,61.6568542 0,60 L0,3 C-6.46995335e-16,1.34314575 1.34314575,3.04359188e-16 3,0 L91,0 C92.6568542,-3.04359188e-16 94,1.34314575 94,3 L94,60 C94,61.6568542 92.6568542,63 91,63 L64,63 L64,51 L90,51 Z" id="Combined-Shape"></path>
            <polygon id="Path-7" points="66.0273456 69.8189458 71.3918322 69.8189458 77.7052906 74.1767589 77.7052906 77.2367267 66.0273456 77.2367267"></polygon>
            <path d="M27,69 L27,70 L64,70 L64,25 L27,25 L27,37 L23,37 L23,26 C23,23.2385763 25.2385763,21 28,21 L63,21 C65.7614237,21 68,23.2385763 68,26 L68,73 C68,75.7614237 65.7614237,78 63,78 L28,78 C25.2385763,78 23,75.7614237 23,73 L23,69 L27,69 Z" id="Combined-Shape"></path>
            <path d="M34,34 C35.1045695,34 36,34.8954305 36,36 L36,76 C36,77.1045695 35.1045695,78 34,78 L11,78 C9.8954305,78 9,77.1045695 9,76 L9,36 C9,34.8954305 9.8954305,34 11,34 L34,34 Z M33,37 L12,37 L12,69 L33,69 L33,37 Z" id="Combined-Shape"></path>
        </g>
    </g>
</svg>