<?xml version="1.0" encoding="UTF-8"?>
<svg width="98px" height="81px" viewBox="0 0 98 81" version="1.1" xmlns="http://www.w3.org/2000/svg" xmlns:xlink="http://www.w3.org/1999/xlink">
    <!-- Generator: Sketch 61.2 (89653) - https://sketch.com -->
    <title>Icon/Services/ico-Negocios</title>
    <desc>Created with Sketch.</desc>
    <g id="Icon/Services/ico-Negocios" stroke="none" stroke-width="1" fill="none" fill-rule="evenodd">
        <path d="M21.7751487,56.109073 C21.8564472,53.1811412 21.2460175,51.3394922 19.9438594,50.5841261 C17.9906222,49.4510769 14.5062295,50.0217453 12.4523558,52.4971086 C10.3984821,54.9724719 9.80887029,57.7083062 11.4282309,59.7947388 C13.0475914,61.8811714 16.2111311,60.8928612 17.0147436,60.3438 C17.8183561,59.7947388 15.690781,64.0140744 17.4462969,65.8391479 C18.6166408,67.0558636 20.4674654,67.298082 22.9987708,66.565803 C22.1386242,69.2533911 22.4132042,71.2413577 23.8225106,72.5297029 C25.231817,73.8180481 27.1222057,73.8180481 29.4936765,72.5297029 C28.3431185,75.8659334 28.5957952,78.1117071 30.2517065,79.2670243 C32.7355735,81 36.636504,79.4105794 38.2819117,77.8465689 C39.9273193,76.2825584 40.6710462,72.9674719 39.4764789,70.9739802 C38.2819117,68.9804884 35.6067552,68.4595462 33.6458224,68.9455616 C32.7355735,68.9804884 34.7790076,65.8113249 32.7355735,63.5493703 C31.3732841,62.0414006 29.6704811,61.7716551 27.6271644,62.740134 C28.1451466,60.4201654 27.7689435,58.6127526 26.498555,57.3178956 C25.2281665,56.0230386 23.6536977,55.6200977 21.7751487,56.109073 Z" id="Path-35" fill="#353B50"></path>
        <path d="M94.2971764,22.431 L80.6741726,25.4998727 C78.7624727,26.0717251 76.9116481,25.715748 75.1216987,24.4319413 C72.4367746,22.5062312 69.0598261,19.0378219 65.0710667,15.9044732 C62.6412859,14.0166741 60.3024823,14.0166741 55.4302099,16.5889609 C52.1820283,18.3038188 45.6684623,21.9554185 35.8895119,27.5437599 C32.6637567,30.2370902 31.912407,32.8298689 33.6354627,35.322096 C36.2200462,39.0604365 39.7864282,37.1715361 43.0796114,35.322096 C45.275067,34.0891359 48.2443387,32.4103482 51.9874265,30.2857329 C54.516186,28.6588542 57.4385776,29.0915283 60.7546012,31.5837554 C64.0706249,34.0759824 69.5070859,39.5351463 77.0639842,47.961247 C79.7158861,50.7874227 82.0554887,52.0225274 84.0827919,51.666561 C86.1100952,51.3105947 89.51489,50.7741624 94.2971764,50.0572641 L94.2971764,22.431 Z" id="Path-34" fill="#353B50"></path>
        <path d="M2.6473888,19.1612478 C6.43261072,20.9505471 9.67971473,22.2219646 12.3887008,22.9755004 C16.0811213,23.6013367 18.0886227,23.0568363 22,21 C30.3452337,15.6524244 43.8963921,12.5519537 44.5169796,18.2155 C37.7601008,21.7089208 34.3031974,22.9755004 30.4178616,26.6893236 C28.5035378,29.41496 27.205978,32.9298639 30.4178616,37.5076599 C33.6297451,42.085456 36.3071326,43.7664621 46.7313995,39 C57.1556663,34.2335379 57.1556663,37.729467 62.3731087,42.1112472 C65.8514036,45.032434 70.2548671,49.4129346 75.583499,55.252749 C76.8476879,57.4588223 76.6464746,59.2471658 74.9798592,60.6177797 C72.4799362,62.6737006 70.4002876,60.9855091 69.023007,59.6827744 C68.1048199,58.8142846 66.3464765,56.9433648 63.7479768,54.070015 C62.5877645,53.8736624 62.1294751,54.2679071 62.3731087,55.252749 C62.6167423,56.237591 64.6765477,58.4279774 68.5525251,61.8239083 C69.8537078,63.9568853 69.7449275,65.6319756 68.2261842,66.849179 C65.9480693,68.6749841 65.0369001,68.4646428 62.3731087,66.2609938 C60.5972478,64.7918945 58.4935528,62.5991547 56.0620237,59.6827744 C54.8580774,59.7612597 54.5189846,60.2770202 55.0447452,61.230056 C55.5705057,62.1830917 57.6832451,64.3970438 61.3829632,67.8719121 C62.4144843,69.9458634 62.0585732,71.5493574 60.3152299,72.6823942 C57.7002149,74.3819494 55.2915648,72.8178495 53.9088296,71.3210228 C52.9870061,70.3231383 51.3507296,68.636462 49,66.2609938 C48.5225316,65.5178328 48.0063716,65.2341948 47.4515199,65.4100799 C46.6192424,66.1082657 47.4515199,67.1524477 48.2837974,67.8719121 C48.838649,68.3515551 50.3841124,69.9550491 52.9201876,72.6823942 C53.7885068,74.7206931 53.4665352,76.2608534 51.9542729,77.3028752 C49.6858795,78.8659079 48.2837974,78.8659079 46.7313995,77.3028752 C45.6964675,76.2608534 44.9583276,75.3163025 44.5169796,74.4692226 C45.3463606,72.2434523 44.7136224,70.0443488 42.618765,67.8719121 C40.5239076,65.6994755 38.9043529,64.6461361 37.7601008,64.7118941 C37.7477423,62.7906195 37.1183592,61.2792442 35.8719515,60.177768 C34.6255438,59.0762918 33.3456736,58.5376554 32.0323408,58.5618589 C31.9550676,56.7930609 31.1808208,55.2957796 29.7096002,54.070015 C28.2383797,52.8442504 26.9803792,52.1230007 25.9355987,51.9062659 C24.802191,48.5692967 22.5063833,46.4291664 19.0481756,45.485875 C15.5899679,44.5425835 12.3817677,45.6610747 9.42357506,48.8413487 C8.08310989,50.8846268 7.4128773,52.0256578 7.4128773,52.2644417 C7.4128773,52.5032256 5.82438113,51.9068947 2.6473888,50.475449 L2.6473888,19.1612478 Z" id="Path-11" fill="#353B50"></path>
    </g>
</svg>