<?xml version="1.0" encoding="UTF-8" standalone="no"?>
<!DOCTYPE svg PUBLIC "-//W3C//DTD SVG 1.1//EN" "http://www.w3.org/Graphics/SVG/1.1/DTD/svg11.dtd">
<svg width="100%" height="100%" viewBox="0 0 40 40" version="1.1" xmlns="http://www.w3.org/2000/svg" xmlns:xlink="http://www.w3.org/1999/xlink" xml:space="preserve" xmlns:serif="http://www.serif.com/" style="fill-rule:evenodd;clip-rule:evenodd;stroke-linejoin:round;stroke-miterlimit:2;">
    <g transform="matrix(1.13337,0,0,1.13337,-2.23771,-0.906931)">
        <circle cx="19.21" cy="14.336" r="10.032" style="fill:white;"/>
    </g>
    <g transform="matrix(1.13337,0,0,1.13337,-2.32774,-0.34614)">
        <path d="M28.758,24.236L25.905,19.785L14.736,19.783L11.497,24.777C12.906,26.259 14.941,27.064 17.889,26.877C17.889,26.877 18.511,27.452 19.802,27.208C21.094,26.964 22.063,25.974 22.063,25.974L25.244,26.662L28.758,24.236Z" style="fill:none;"/>
    </g>
    <g transform="matrix(1.23315,0,0,1.23315,-1.40743,-10.8637)">
        <path d="M22.745,17.768C23.298,18.71 23.615,19.807 23.615,20.977C23.615,24.483 20.769,27.33 17.263,27.33C13.804,27.33 10.987,24.558 10.913,21.117L12.552,22.544C13.209,24.517 15.071,25.941 17.263,25.941C20.003,25.941 22.227,23.717 22.227,20.977C22.227,20.238 22.065,19.536 21.775,18.906L22.745,17.768ZM11.897,17.579C13.024,15.804 15.007,14.625 17.263,14.625C18.393,14.625 19.455,14.921 20.374,15.439L19.491,16.541C18.821,16.204 18.064,16.014 17.263,16.014C15.409,16.014 13.791,17.032 12.939,18.541L11.897,17.579Z"/>
    </g>
    <g transform="matrix(1.13223,0,0,1.13223,-0.067027,-9.49906)">
        <path d="M9.434,19.986L11.428,18.22L15.935,22.61L22.607,14.282L24.72,16.179L16.474,26.116L9.434,19.986Z"/>
    </g>
    <g transform="matrix(1.19136,0,0,1.19136,-3.5402,-1.20019)">
        <path d="M12.487,22.989C12.453,23.943 12.915,24.834 13.749,25.236C14.9,25.79 16.265,25.698 16.915,24.43C16.915,24.43 17.07,25.901 18.307,26.234L13.76,34.273L12.078,30.73L7.92,30.466L12.487,22.989ZM21.584,25.553C21.784,25.164 21.978,24.816 21.978,24.336C22.611,25.65 23.822,25.8 24.992,25.236C26.163,24.673 27.008,23.554 26.375,22.24C26.85,22.618 27.23,22.667 27.77,22.705L31.872,29.561L27.714,29.824L26.032,33.367L21.584,25.553Z"/>
    </g>
    <g transform="matrix(1.04492,0,0,1.04492,1.78216,-6.93201)">
        <path d="M14.524,9.829C14.524,8.247 15.668,6.962 17.077,6.962C18.486,6.962 19.63,8.247 19.63,9.829C20.317,8.403 21.905,7.742 23.174,8.354C24.444,8.965 24.917,10.619 24.231,12.044C25.468,11.058 27.185,11.151 28.064,12.253C28.943,13.355 28.652,15.05 27.415,16.036C28.957,15.684 30.464,16.514 30.777,17.888C31.091,19.262 30.093,20.663 28.551,21.015C30.093,21.367 31.091,22.768 30.777,24.142C30.464,25.515 28.957,26.345 27.415,25.993C28.652,26.979 28.943,28.675 28.064,29.776C27.185,30.878 25.468,30.972 24.231,29.985C24.917,31.411 24.444,33.064 23.174,33.676C21.905,34.287 20.317,33.626 19.63,32.201C19.63,33.783 18.486,35.067 17.077,35.067C15.668,35.067 14.524,33.783 14.524,32.201C13.838,33.626 12.25,34.287 10.98,33.676C9.711,33.064 9.237,31.411 9.923,29.985C8.687,30.972 6.969,30.878 6.091,29.776C5.212,28.675 5.503,26.979 6.74,25.993C5.197,26.345 3.691,25.515 3.377,24.142C3.064,22.768 4.061,21.367 5.603,21.015C4.061,20.663 3.064,19.262 3.377,17.888C3.691,16.514 5.197,15.684 6.74,16.036C5.503,15.05 5.212,13.355 6.091,12.253C6.969,11.151 8.687,11.058 9.923,12.044C9.237,10.619 9.711,8.965 10.98,8.354C12.25,7.742 13.838,8.403 14.524,9.829ZM17.07,10.493C22.911,10.493 27.654,15.236 27.654,21.078C27.654,26.92 22.911,31.662 17.07,31.662C11.228,31.662 6.485,26.92 6.485,21.078C6.485,15.236 11.228,10.493 17.07,10.493Z"/>
    </g>
</svg>
